<?xml version="1.0" encoding="UTF-8"?>
<svg id="Layer_1" data-name="Layer 1" xmlns="http://www.w3.org/2000/svg" viewBox="0 0 800 400">
  <defs>
    <style>
      .cls-1 {
        fill: #f4ea09;
      }

      .cls-2 {
        fill: #22418e;
      }
    </style>
  </defs>
  <path class="cls-1" d="M554.5,174.48s19.67,10.06,44.38,10.52c24.7,.46,82.35,0,82.35,0,0,0,26.54,.92,34.77,2.97,8.23,2.06,18.53,6.41,18.53,6.41l9.47,5.59s-1.46-2.62-29.37-4.91c-27.91-2.29-78.46-2.29-78.46-2.29h-51.01l-28.37-13.15-2.29-5.15Z"/>
  <path class="cls-1" d="M117.84,271.01s17.1,10.93,20.46-6.78c3.36-17.7,2.87-39.14,2.87-39.14l-1.15-42.66s-.19-25.86,2.19-32.38c2.37-6.52,10.87-7.43,10.87-7.43,0,0,2.08-.23,5.27,0,3.2,.23,13.68,5.85,13.68,5.85,0,0-14.89-1.67-18.19,5.82-4.57,10.37-1.04,62.65-.9,70.14,.24,13.12,1.1,24.54,1.1,24.54,0,0-2.16,18.09-8.34,29.41-4.38,8.03-12.6,10.21-17.39,7.44-4.79-2.77-10.6-11.36-10.6-11.36l-1.39-3.18s-1.43-2.58,0-1.32c.53,.46,1.52,1.03,1.52,1.03"/>
  <path class="cls-1" d="M162.04,160.62s1.49-1.63,4.23,0c2.75,1.63,17.69,10.94,17.69,10.94l20.59,13.73,13.57,8.54s3.47,2.04,8.54,2.44c5.07,.4,16.45-.8,16.45-.8,0,0-10.16-.81-15.23-1.95-9.73-2.19-20.89-11.61-25.93-14.81-5.03-3.19-21.87-14.78-21.87-14.78l-13.36-7.17s-3.89-.76-4.69,.61c-.8,1.37,0,3.25,0,3.25"/>
  <path class="cls-1" d="M224.18,180.86l182.55-1.23s11.32,.45,6.18-5.04c-5.15-5.49-88.53-88.87-88.53-88.87,0,0-16.13-14.75-14.75-21.96,1.37-7.21,13.72-7.55,13.72-7.55l16.21,1.84,26.34,15.32s-19.9-12.01-28.48-8.24c-8.58,3.78-8.92,9.95-7.21,12.35,1.72,2.4,21.62,22.65,21.62,22.65l71.07,72.06s14.45,11.67,0,13.73c-14.45,2.06-192.19,2.06-192.19,2.06l-6.52-7.11"/>
  <path class="cls-1" d="M349.5,73.79s26,12.28,32.86,16.05c6.86,3.77,163.44,95.16,163.44,95.16,0,0,10.98,6.41,17.84,9.15,6.86,2.74,22.33,4.74,22.33,4.74l10.84-2s-20.59-2.52-39.8-13.5c-19.22-10.98-127.7-74.57-127.7-74.57l-73.83-39.12-5.99,4.08"/>
  <path class="cls-1" d="M12.6,54.35c.1,.34,11.5,38.52,11.5,38.52l24.45,71.77,24.71,63.14,19.9,44.61s14.41,22.99,15.78,24.02c1.37,1.03,13.38,11.04,13.38,11.04l-8.23-1.43s-7.55-1.37-19.56-15.1c-12.01-13.73-36.03-71.37-36.03-71.37L26.59,122.09s-12.98-53.94-13.44-56.02c-.23-1.04-1.06-6.43-1.06-6.43,0,0-.05-2.89-.05-2.69v-1.37c0-.63,.47-1.57,.56-1.23"/>
  <path class="cls-2" d="M430,165.88c6.72,9.06,12.44,15.93,6.28,22.65-.6,.65-5.37,5.86-19.79,5.63-4.09-.06-61.91,.04-66.01,.08-.78,0-72.49,1.06-74.73,1.09-7.76,.11-28.6,.21-32.65,.13-.56-.01-13.1,.22-22.27-4.52-8.38-4.32-41.02-26.6-45.3-28.88-2.96-1.58-13.44-8.76-15.35,.95-1.01,5.14-.1,17.64,.36,42.65,0,0,.91,13.12,.91,32.18,0,4.87-.36,10.67-.86,15.48-.32,2.33-1.69,12.58-3.62,18.33-4.08,13.37-5.62,17.58-14.31,28.04-4.53,5.03-10.12,8.15-17.13,7.42-2.54-.27-5.01-1.29-7.51-1.96-11.31-9.51-14.4-13.41-24.47-30.32l-16.24-33.42-23.1-56.49-14.41-40.73-20.95-59.5c-.96-3.37-6.95-23.73-7.78-26.81-.2-1.48-.92-3.52-1.12-5-.14-.66-.02-.76,.26-.86,1.32,1.4,1.88,2.93,2.49,4.31,4.74,10.77,9.46,21.56,14.14,32.36,9.92,22.9,19.88,45.78,29.71,68.72,8.72,20.34,17.53,40.62,27.87,60.21q8.46,16.02,16.29,31.38c6.63,10.24,17.75,26.05,23.85,29.31,7.17,1.98,18.72,2.46,22.11-29.03,.79-7.34,1.57-4.01,1.37-33.86-.76-21.2-.57-20.81-.71-29.67-.16-9.77-1.37-34.62,4.12-39.19,2.91-2.43,7.23-2.39,10.31-1.84,1.8,.33,10.69,2.07,20.15,8.15,10.6,6.82,18.81,12.68,29.53,19.33,3.79,2.35,4.43,2.67,9.84,6.18,4.1,2.65,11.85,5.65,16.14,6.24,15.56,2.14,133.69-.1,148.85-.4,8.25-.02,30.51-.31,34.46-4.27,2.6-2.6-1.22-6.87-6.28-11.87-23.6-23.32-84-82.69-85.86-84.58-2.81-2.84-4.69-4.55-7.44-9.4-1.59-2.81-2.78-10.2-.42-12.37,.92-.85,1.41-4.24,8.86-4.29,7.04-.05,13.55,.4,27.79,5.2,12.1,4.08,32.87,14.61,40.06,17.85,22.34,10.06,48.29,26.74,60.82,34.14,29.29,16.94,110.99,65.61,111.47,65.83,.59,.41,14.26,6.96,24.86,7.79,9.81,.77,39.3,.37,49.12-.22,6.5-.39,59.28,1.58,63.07,2.05,8.5,1.05,13.62,1.7,13.62,1.7,15.12,2.72,29.24,9.72,35.85,17.69,1.86,2.25,4.35,3.85,4.18,7.2-2.82,1.03-5.07-.13-7.26-1.44-7.32-4.38-21.75-11.1-34.83-13.24-20.05-3.28-79.19-3.19-79.73-2.93-16.97,.71-33.95,1.82-50.92,.1-2.07-.21-6.66-1.55-6.97-1.69-6.15-2.73-15.02-4.95-24.61-10.78-1.12-.68-10.99-6.24-11.17-6.32-1.65-1.05-36.75-21.96-59.21-34.86-17.77-10.2-56.28-33.17-56.28-33.17,0,0-38.67-22.15-47.81-26.54-10.48-5.03-35.99-14.5-42.78-14.01-5.51,.4,3.94,10.5,4.53,11.02,5.78,5.13,30.05,28.11,32.14,30.21,4.85,4.89,19.44,18.45,19.44,18.45l16.09,15.72,18.97,18.67Z"/>
  <path class="cls-2" d="M184.76,266.49c0,2.2-1.29,3.5-3.5,3.5s-3.29-1.1-3.5-3.3c-.28-2.59-.43-7.9-.43-15.8,0-12.11,.5-18.85,.64-20.14,.29-2.53,1.14-3.63,3.71-3.63,2.07,0,3.43,1.17,3.43,3.3,0,1.29-.86,8.35-.86,21.24,0,8.48,.5,13.41,.5,14.83"/>
  <path class="cls-2" d="M181.25,271.89c-3.11,0-5.08-1.83-5.39-5.02-.29-2.62-.44-8.01-.44-15.99,0-11.83,.47-18.7,.65-20.35,.26-2.29,1.12-5.32,5.6-5.32,3.19,0,5.33,2.09,5.33,5.2,0,.34-.05,1.03-.13,2.08-.24,3.07-.73,9.45-.73,19.16,0,5.96,.25,10.11,.39,12.59,.06,1.06,.11,1.81,.11,2.25,0,3.28-2.12,5.4-5.4,5.4m.43-42.88c-1.33,0-1.62,.06-1.83,1.94-.16,1.48-.63,8.33-.63,19.93,0,7.84,.14,13.09,.42,15.6,.14,1.39,.59,1.61,1.61,1.61,1.17,0,1.6-.43,1.6-1.6,0-.39-.04-1.07-.1-2.02-.15-2.52-.4-6.74-.4-12.82,0-9.86,.5-16.34,.74-19.45,.07-.91,.12-1.5,.12-1.79,0-.84-.26-1.4-1.53-1.4"/>
  <path class="cls-2" d="M223.83,263.38c3.86,0,5.79,.58,5.79,2.59,0,1.75-1.43,2.59-4.36,2.72-15.86,.71-24.07,1.49-25.08,1.49-2.79,0-4-1.1-4-3.5,0-1.56,1.28-8.23,1.28-20.08,0-9.59-1.28-14.64-1.28-15.35,0-2.53,1.79-3.37,5.64-3.5,15.65-.52,23.65-1.43,24.58-1.43,2.14,0,3.36,1.1,3.36,2.59,0,3.82-8.15,3.17-26.08,4.08,.21,1.88,.43,4.14,.57,6.86l19.36-1.17h.71c2.36,0,3.57,.84,3.57,2.53s-1.21,2.59-3.71,2.72l-19.86,1.23c.07,1.1,.07,2.01,.07,2.72,0,2.27-.29,7.84-1,16.71,10.5-.84,17.29-1.23,20.43-1.23"/>
  <path class="cls-2" d="M200.18,272.08c-5.13,0-5.9-3.38-5.9-5.4,0-.52,.09-1.28,.24-2.55,.37-3.12,1.05-8.94,1.05-17.53,0-7.37-.78-12-1.11-13.98-.12-.72-.18-1.17-.18-1.37,0-5.15,5.43-5.33,7.48-5.4,11.85-.39,19.38-1.01,22.59-1.28,1.13-.09,1.81-.14,2.05-.14,3.1,0,5.26,1.85,5.26,4.49,0,4.89-5.74,5.1-18.32,5.57-2.27,.09-4.78,.18-7.55,.31,.1,1.02,.18,2.03,.25,3.05l18.29-1.05c5.08,0,5.47,3.39,5.47,4.43,0,1.3-.54,4.36-5.52,4.62l-17.99,1.11c0,.34,0,.66,0,.94,0,2.47-.31,7.85-.83,14.64,8.92-.7,15.24-1.06,18.36-1.06,2.3,0,7.69,0,7.69,4.49,0,1.98-1.07,4.39-6.17,4.62-11.25,.51-18.74,1.05-22.34,1.31-1.58,.12-2.52,.18-2.82,.18m26.22-43.85c-.22,0-.79,.05-1.73,.13-3.24,.27-10.83,.9-22.78,1.29-3.81,.13-3.81,.87-3.81,1.6,.01,.08,.06,.35,.13,.74,.35,2.07,1.16,6.92,1.16,14.61,0,8.81-.7,14.77-1.07,17.97-.11,.97-.21,1.8-.21,2.11,0,1,0,1.6,2.1,1.6,.27,0,1.12-.06,2.55-.17,3.62-.26,11.14-.81,22.44-1.32,.76-.03,2.54-.18,2.54-.82-.05-.2-.59-.69-3.89-.69-2.28,0-7.65,.21-20.28,1.23l-2.22,.18,.18-2.22c.92-11.46,.99-15.57,.99-16.56,0-.68,0-1.55-.07-2.6l-.12-1.9,21.76-1.35c1.93-.1,1.93-.61,1.93-.82,0-.2,0-.63-1.67-.63h-.71l-21.16,1.28-.1-1.91c-.12-2.28-.3-4.49-.56-6.75l-.23-2.01,2.02-.1c3.59-.18,6.78-.3,9.6-.41,6.91-.26,14.06-.53,14.66-1.68,0-.74-1.11-.79-1.45-.79"/>
  <path class="cls-2" d="M256.13,232.42l.5,34.52c0,2.01-1.36,3.37-3.5,3.37-2,0-3.36-1.29-3.36-3.3l-.5-34.13c-4.29,.2-7.36,.32-9.29,.32-4,0-6-.65-6-2.85,0-1.88,1.64-2.59,4.79-2.59,4.5,0,9.79-.19,15.86-.58l14.57-.9h.36c2,0,3.29,.97,3.29,2.39,0,1.75-1.29,2.72-3.79,2.92l-12.93,.84Z"/>
  <path class="cls-2" d="M253.13,272.21c-3.05,0-5.26-2.19-5.26-5.2l-.47-32.15c-3.17,.14-5.72,.24-7.42,.24-2.36,0-7.9,0-7.9-4.75,0-2.98,2.25-4.49,6.69-4.49s9.75-.2,15.74-.58l15.05-.91c3.05,0,5.19,1.77,5.19,4.3,0,1.32-.54,4.42-5.54,4.81l-11.15,.73,.48,32.72c0,3.13-2.22,5.3-5.4,5.3m-1.99-41.32l.53,36.09c0,.96,.49,1.43,1.46,1.43,1.06,0,1.6-.49,1.6-1.47l-.53-36.3,14.73-.96c2.01-.16,2.01-.76,2.01-1.02,0-.27-.62-.5-1.39-.5h-.36l-14.46,.9c-6.06,.39-11.44,.59-15.98,.59-2.44,0-2.86,.48-2.86,.49,0,.01-.02,.08-.02,.21,0,.23,0,.95,4.1,.95,1.95,0,5.18-.14,9.2-.32l1.96-.09Z"/>
  <path class="cls-2" d="M307.63,253.15c0-12.76,.36-20.27,.5-22.54,.21-2.4,1.07-3.5,3.29-3.5,1.86,0,3,1.17,3,3.3,0,1.62-.64,8.29-.64,20.01,0,9.65,.36,15.29,.36,16.97,0,2.14-1.07,3.37-2.79,3.37-3.57,0-12.86-10.62-26.5-32.32l.5,28.11v.19c0,2.07-1.14,3.17-3.22,3.17-1.93,0-3.07-1.16-3.07-3.3l-.5-35.43v-.19c0-2.72,1.43-4.21,3.86-4.21,1.93,0,2.93,1.16,4.28,3.37,8.15,13.41,14.79,23.77,21.15,30.51-.14-3.18-.21-5.64-.21-7.51"/>
  <path class="cls-2" d="M311.34,272.66c-5.24,0-15.59-13.9-24.48-27.54l.38,21.62c0,3.13-1.96,5.07-5.11,5.07s-4.97-2.04-4.97-5.2l-.5-35.62c0-3.71,2.26-6.11,5.76-6.11,3.02,0,4.52,2.02,5.91,4.27,7.04,11.58,12.44,20.03,17.44,26.21-.02-.82-.02-1.55-.02-2.22,0-13.87,.42-21.31,.5-22.66,.32-3.52,2.06-5.28,5.19-5.28s4.9,2.04,4.9,5.21c0,.46-.05,1.3-.12,2.54-.18,3.14-.52,8.98-.52,17.48,0,6.77,.17,11.54,.28,14.38,.05,1.22,.08,2.08,.08,2.59,0,3.15-1.88,5.27-4.69,5.27m-28.52-41l3.63,5.77c19.43,30.91,24.84,31.43,24.9,31.43,.29,0,.88,0,.88-1.47,0-.48-.03-1.3-.07-2.45-.11-2.87-.28-7.68-.28-14.52,0-8.6,.34-14.52,.53-17.7,.06-1.13,.11-1.9,.11-2.32,0-1.41-.61-1.41-1.1-1.41-.9,0-1.24,0-1.4,1.77-.08,1.28-.49,8.61-.49,22.37,0,1.79,.07,4.22,.21,7.43l.23,5.1-3.51-3.71c-6.25-6.62-12.57-16.31-21.39-30.82-1.37-2.22-1.86-2.45-2.66-2.45-1.01,0-1.96,.28-1.96,2.31v.2l.5,35.4c0,1.32,.51,1.43,1.17,1.43,1.12,0,1.31-.33,1.31-1.27v-.2l-.62-34.89Z"/>
  <path class="cls-2" d="M324.26,269.66c-1.57,0-2.78-1.16-2.78-2.79,0-1.49,4.07-12.63,13.79-32.25,2.79-5.57,4.5-8.29,7.21-8.29,3.5,0,4.36,3.56,6.93,9.78,8.21,19.82,16.72,29.21,16.72,31.48,0,1.43-1.21,2.46-3.07,2.46-2.93,0-5.57-4.99-11.21-14.31l-19.72,.91c-3.78,8.68-4.14,13.02-7.86,13.02m10-18.52l14.79-.65c-3.28-6.74-5.57-12.18-6.93-16.32-1.79,3.3-4.36,8.94-7.86,16.97"/>
  <path class="cls-2" d="M363.05,271.95c-3.69,0-6.17-4.13-11.12-12.37l-1.14-1.89-17.4,.8c-.74,1.77-1.34,3.32-1.88,4.73-1.93,5.03-3.2,8.35-7.26,8.35-2.63,0-4.68-2.06-4.68-4.69,0-2.38,5.23-15.42,13.98-33.1,2.83-5.65,4.97-9.35,8.92-9.35,4.31,0,5.73,3.58,7.71,8.54,.3,.75,.62,1.55,.97,2.41,5.16,12.45,10.45,20.76,13.61,25.72,2.23,3.51,3.25,5.11,3.25,6.49,0,2.53-2.09,4.36-4.97,4.36m-10.17-18.16l2.31,3.84c3.39,5.65,6.32,10.53,7.86,10.53,.4,0,1.17-.12,1.17-.56-.12-.46-1.41-2.49-2.66-4.45-3.22-5.07-8.62-13.55-13.91-26.31-.36-.87-.69-1.69-.99-2.45-1.96-4.91-2.62-6.15-4.18-6.15s-3.11,2.44-5.51,7.24c-9.85,19.89-13.45,30.17-13.59,31.47,0,.48,.34,.82,.89,.82,1.3,0,1.9-1.2,3.71-5.91,.66-1.72,1.41-3.67,2.41-5.97l.47-1.08,22.03-1.01Zm-21.57-.62l1.22-2.79c3.86-8.86,6.23-13.98,7.93-17.12l2.1-3.89,1.38,4.2c1.37,4.19,3.67,9.6,6.83,16.08l1.27,2.6-20.72,.91Zm10.53-14.21c-1.21,2.53-2.72,5.85-4.61,10.14l8.86-.39c-1.71-3.61-3.13-6.87-4.26-9.76"/>
  <path class="cls-2" d="M418.2,269.86c-2,0-3.36-1.36-3.36-3.3l.07-27.14c-11.15,20.59-16.86,31.28-20.5,31.28-1.57,0-2.29-1.23-3.29-3.37-2.86-6.15-6.79-15.87-14-28.43,.43,4.28,.43,8.88,.43,13.8,0,8.94,0,14.05-.36,15.35-.43,1.69-1.36,2.46-3.21,2.46-2.21,0-3.36-1.3-3.36-3.82,0-1.75,.28-6.93,.28-15.54,0-11.53-.78-18.39-.78-20.47s1.57-3.37,4-3.37c5.57,0,10.57,11.85,21.64,34.91,5.14-7.77,9.79-16.78,14.5-26.94,2.5-5.51,3.71-8.61,7.07-8.61,2.29,0,3.78,1.29,3.78,3.37l.43,36.4c0,2.07-1.36,3.44-3.36,3.44"/>
  <path class="cls-2" d="M394.41,272.6c-2.92,0-4.08-2.47-5.01-4.46-.59-1.28-1.23-2.71-1.93-4.28-1.99-4.45-4.52-10.12-8.04-16.83,.02,1.84,.02,3.73,.02,5.66,0,10.63-.02,14.39-.43,15.86-.65,2.54-2.35,3.86-5.05,3.86-3.29,0-5.26-2.14-5.26-5.72,0-.55,.03-1.45,.07-2.68,.08-2.6,.22-6.95,.22-12.86,0-8.03-.38-13.78-.61-17.22-.1-1.52-.17-2.61-.17-3.25,0-3.1,2.43-5.27,5.9-5.27,6.19,0,10.54,9.13,20.08,29.13,.58,1.22,1.18,2.48,1.81,3.78,3.96-6.34,7.9-13.86,12.53-23.85l.39-.86c2.33-5.14,4.01-8.85,8.41-8.85,3.35,0,5.69,2.17,5.69,5.27l.43,36.38c0,3.11-2.21,5.36-5.26,5.36s-5.26-2.19-5.26-5.2l.05-19.6c-10.07,18.55-14.28,25.65-18.58,25.65m-20.07-42.36l4.43,7.71c5.78,10.06,9.47,18.33,12.17,24.36,.7,1.55,1.32,2.96,1.91,4.22,.9,1.92,1.23,2.27,1.56,2.27,2.49-.08,9.79-13.57,18.24-29.19l4.18-7.73-.09,34.69c0,.9,.52,1.4,1.46,1.4s1.46-.51,1.46-1.54l-.43-36.38c0-1-.63-1.49-1.88-1.49-1.8,0-2.68,1.62-4.95,6.62l-.4,.88c-5.43,11.72-9.94,20.1-14.65,27.21l-1.85,2.79-1.45-3.02c-1.16-2.41-2.25-4.7-3.28-6.86-7.74-16.24-12.86-26.97-16.65-26.97-.63,0-2.1,.14-2.1,1.47,0,.59,.07,1.59,.16,3,.23,3.48,.62,9.31,.62,17.47,0,5.97-.14,10.36-.22,12.98-.04,1.18-.06,2.03-.06,2.56,0,1.92,.71,1.92,1.46,1.92,1,0,1.16-.21,1.37-1.03,.3-1.08,.3-7.17,.3-14.88,0-4.85,0-9.43-.42-13.61l-.89-8.85Z"/>
  <path class="cls-2" d="M473.04,232.42l.5,34.52c0,2.01-1.36,3.37-3.5,3.37-2,0-3.36-1.29-3.36-3.3l-.5-34.13c-4.29,.2-7.36,.32-9.29,.32-4,0-6-.65-6-2.85,0-1.88,1.64-2.59,4.79-2.59,4.5,0,9.79-.19,15.86-.58l14.57-.9h.36c2,0,3.29,.97,3.29,2.39,0,1.75-1.29,2.72-3.78,2.92l-12.93,.84Z"/>
  <path class="cls-2" d="M470.04,272.21c-3.05,0-5.26-2.19-5.26-5.2l-.47-32.15c-3.17,.14-5.72,.24-7.42,.24-2.36,0-7.9,0-7.9-4.75,0-2.98,2.25-4.49,6.69-4.49s9.75-.2,15.74-.58l15.05-.91c3.06,0,5.19,1.77,5.19,4.3,0,1.32-.54,4.42-5.54,4.81l-11.15,.73,.47,32.72c0,3.13-2.22,5.3-5.4,5.3m-1.99-41.32l.53,36.09c0,.96,.49,1.43,1.46,1.43,1.06,0,1.6-.49,1.6-1.47l-.53-36.3,14.73-.96c2.01-.16,2.01-.76,2.01-1.02,0-.27-.62-.5-1.39-.5h-.36l-14.46,.9c-6.06,.39-11.44,.59-15.98,.59-2.44,0-2.86,.48-2.86,.49,0,.01-.02,.08-.02,.2,0,.23,0,.95,4.1,.95,1.94,0,5.18-.14,9.2-.32l1.96-.09Z"/>
  <path class="cls-2" d="M533.4,264.94c-4.71,3.69-11.22,5.83-18.5,5.83-13.86,0-22.43-8.03-22.43-21.05,0-14.25,10.5-23.71,26-23.71,7.22,0,13.36,2.01,17.86,5.64,4.57,3.76,7,8.74,7,14.51,0,7.06-3.43,13.73-9.93,18.78m-33.72-15.22c0,9.52,6.07,15.35,15.64,15.35,5,0,9.29-1.3,12.93-3.95,4.86-3.5,7.86-9.26,7.86-14.77,0-8.55-7.14-14.83-17.65-14.83-11.29,0-18.79,7.06-18.79,18.2"/>
  <path class="cls-2" d="M514.9,272.66c-15.01,0-24.33-8.79-24.33-22.95,0-15.31,11.21-25.61,27.9-25.61,7.55,0,14.14,2.09,19.05,6.06,5.05,4.14,7.71,9.67,7.71,15.99,0,7.73-3.78,14.93-10.66,20.28-5.14,4.02-12.12,6.23-19.67,6.23m3.57-44.75c-14.42,0-24.1,8.76-24.1,21.81,0,11.99,7.68,19.15,20.53,19.15,6.71,0,12.86-1.92,17.33-5.42h0c5.93-4.61,9.19-10.75,9.19-17.29,0-5.14-2.18-9.65-6.3-13.04-4.22-3.4-9.98-5.2-16.66-5.2m-3.14,39.05c-10.66,0-17.55-6.77-17.55-17.25,0-12.02,8.31-20.1,20.69-20.1,11.33,0,19.55,7.04,19.55,16.73,0,6.22-3.31,12.47-8.65,16.31-3.92,2.86-8.64,4.31-14.04,4.31m3.14-33.55c-10.42,0-16.89,6.25-16.89,16.3,0,8.42,5.14,13.45,13.75,13.45,4.64,0,8.5-1.17,11.81-3.59,4.3-3.1,7.08-8.29,7.08-13.23,0-7.62-6.48-12.93-15.75-12.93"/>
  <path class="cls-2" d="M564.75,265.32c5.36,0,11.07-1.94,14.43-4.6,2.86-2.27,3.29-6.61,3.29-13.99,0-9.46-.64-15.03-.64-16.65,0-2.14,1.14-3.3,3.14-3.3,4.14,0,4.21,5.25,4.21,17.81,0,8.68-.43,14.25-2.5,17.16-3.43,4.79-12.43,9-22.86,9-9.15,0-12.43-3.95-12.57-13.34l-.36-27.33c0-2.01,1.36-3.3,3.5-3.3s3.57,1.29,3.57,3.24l.28,27.72c.07,5.5,1.43,7.58,6.5,7.58"/>
  <path class="cls-2" d="M563.82,272.66c-9.98,0-14.31-4.55-14.47-15.21l-.36-27.34c0-3.09,2.22-5.23,5.4-5.23s5.47,2.16,5.47,5.14l.28,27.7c.06,4.99,1.04,5.7,4.6,5.7,4.76,0,10.09-1.68,13.25-4.19,2.17-1.72,2.56-5.56,2.56-12.5s-.32-11.29-.5-14.08c-.08-1.21-.14-2.07-.14-2.57,0-3.16,1.98-5.2,5.04-5.2,6.11,0,6.11,6.59,6.11,19.71,0,9.03-.47,14.91-2.85,18.26-4.13,5.77-14.17,9.8-24.41,9.8m-9.43-43.98c-1.6,0-1.6,1.02-1.6,1.4l.36,27.31c.13,8.57,2.82,11.47,10.67,11.47,10.14,0,18.4-4.13,21.32-8.21,1.78-2.5,2.15-8.23,2.15-16.06,0-10.74-.1-15.91-2.31-15.91-.84,0-1.24,.21-1.24,1.4,0,.45,.06,1.22,.13,2.31,.19,2.84,.51,7.59,.51,14.34,0,7.2-.29,12.53-4,15.48-3.85,3.05-9.98,5.01-15.61,5.01-6.87,0-8.33-3.78-8.4-9.45l-.28-27.73c0-1.12-.91-1.36-1.67-1.36"/>
  <path class="cls-2" d="M636.04,262.93c4.29,2.65,7,3.95,7,5.7,0,1.55-1.29,2.79-2.79,2.79-3.14,0-14-7.51-33.29-21.89l.43,17.36v.13c0,1.75-1.36,2.98-3.36,2.98-2.14,0-3.57-1.3-3.57-3.3l-.64-36.59c0-2.01,1.36-3.3,3.71-3.3,1.14,0,2.07,.32,2.79,1.1,6.43-.58,11.07-.91,13.86-.91,9.64,0,14.57,3.3,14.57,9.33,0,6.41-7.43,10.43-21.72,10.95,7.5,5.5,15.15,10.75,23,15.68m-8.36-26.69c0-2.59-2.5-4.01-7.29-4.01-3.5,0-8,.32-13.5,.97v9.59c14-.45,20.79-2.14,20.79-6.54"/>
  <path class="cls-2" d="M640.25,273.31c-3.28,0-11.03-4.91-31.29-19.94l.33,13.46c0,3-2.21,5.05-5.26,5.05-3.22,0-5.47-2.14-5.47-5.2l-.64-36.56c0-3.14,2.26-5.24,5.61-5.24,1.35,0,2.49,.35,3.43,1.04,6.42-.57,10.63-.84,13.22-.84,14.33,0,16.47,7.03,16.47,11.23s-2.52,10.71-18.28,12.47c6.35,4.55,12.5,8.67,18.67,12.54,.7,.43,1.35,.83,1.96,1.2,3.57,2.16,5.94,3.58,5.94,6.12s-2.1,4.69-4.69,4.69m-35.29-27.65l3.13,2.34c8.64,6.44,28.86,21.51,32.15,21.51,.43,0,.89-.36,.89-.89-.21-.51-2.37-1.81-4.1-2.86-.62-.37-1.29-.78-2-1.22h0c-7.61-4.77-15.17-9.92-23.12-15.76l-4.4-3.23,5.46-.2c12.64-.46,19.89-3.75,19.89-9.05,0-4.93-4.26-7.43-12.67-7.43-2.58,0-6.93,.28-13.69,.9l-.93,.08-.64-.69c-.22-.24-.55-.48-1.39-.48-1.81,0-1.81,.98-1.81,1.4l.64,36.56c0,.97,.56,1.44,1.67,1.44,.44,0,1.46-.11,1.46-1.08l-.53-21.35Zm.02-.91v-13.24l1.68-.2c5.56-.65,10.17-.98,13.72-.98,8.29,0,9.19,4.14,9.19,5.91,0,6.42-8.66,7.99-22.63,8.44l-1.96,.06Zm3.8-9.85v5.92c5.82-.24,16.99-1.01,16.99-4.57,0-1.91-3.77-2.11-5.39-2.11-3.05,0-6.94,.26-11.6,.77"/>
  <path class="cls-2" d="M653.6,266.49c0,2.2-1.29,3.5-3.5,3.5s-3.29-1.1-3.5-3.3c-.28-2.59-.43-7.9-.43-15.8,0-12.11,.5-18.85,.64-20.14,.28-2.53,1.14-3.63,3.71-3.63,2.07,0,3.43,1.17,3.43,3.31,0,1.29-.86,8.35-.86,21.24,0,8.49,.5,13.41,.5,14.83"/>
  <path class="cls-2" d="M650.1,271.89c-3.12,0-5.08-1.83-5.39-5.02-.29-2.62-.44-8.01-.44-15.99,0-11.77,.47-18.68,.65-20.35,.26-2.29,1.12-5.32,5.6-5.32,3.19,0,5.33,2.09,5.33,5.2,0,.34-.05,1.03-.13,2.08-.24,3.07-.73,9.45-.73,19.16,0,5.96,.25,10.11,.4,12.59,.06,1.06,.1,1.81,.1,2.24,0,3.28-2.12,5.4-5.4,5.4m.43-42.88c-1.33,0-1.62,.06-1.83,1.94-.16,1.5-.63,8.39-.63,19.93,0,7.84,.14,13.09,.42,15.6,.13,1.39,.58,1.61,1.61,1.61,1.17,0,1.6-.43,1.6-1.6,0-.39-.04-1.06-.1-2.02-.15-2.52-.4-6.74-.4-12.81,0-9.86,.5-16.34,.74-19.45,.07-.91,.12-1.5,.12-1.79,0-.84-.26-1.4-1.53-1.4"/>
  <path class="cls-2" d="M662.38,262.15c0-1.75,1.36-2.91,3.14-2.91,1.36,0,2.07,.78,3.14,1.94,2.78,3.11,5.28,4.15,10.29,4.15,6.07,0,11.79-1.81,15.86-4.86,2.93-2.2,4.43-5.05,4.43-8.35,0-4.34-2.43-6.61-7.14-6.61-5.22,0-11.07,2.14-17.08,2.14-7.29,0-11.43-3.18-11.43-8.35,0-7.26,9.21-13.28,22.93-13.28,8.36,0,13.43,3.11,13.43,6.09,0,1.75-1.28,2.98-2.78,2.98s-2.43-.97-3.57-1.75c-2.5-1.68-4.72-2.26-8-2.26-9.07,0-15.15,3.56-15.15,7.77,0,2.07,1.57,3.17,4.64,3.17,5.43,0,11.43-2.2,17.65-2.2,8.22,0,13.64,4.53,13.64,11.59,0,3.89-1.36,7.39-4,10.36-4.86,5.44-13.65,9-23.72,9s-16.29-4.34-16.29-8.61"/>
  <path class="cls-2" d="M678.67,272.66c-11.81,0-18.19-5.42-18.19-10.51,0-2.75,2.17-4.81,5.04-4.81,2.19,0,3.38,1.3,4.54,2.55,2.46,2.75,4.45,3.53,8.89,3.53,5.55,0,10.92-1.63,14.72-4.48,2.43-1.83,3.67-4.13,3.67-6.83,0-3.3-1.57-4.71-5.24-4.71-2.34,0-4.89,.48-7.59,.98-3.05,.57-6.2,1.16-9.48,1.16-8.22,0-13.33-3.93-13.33-10.25,0-8.8,10.44-15.18,24.83-15.18,8.88,0,15.33,3.36,15.33,7.99,0,2.74-2.06,4.88-4.69,4.88-1.87,0-3.06-.9-4.01-1.62-.2-.15-.41-.31-.63-.46-2.12-1.43-3.94-1.94-6.93-1.94-8.18,0-13.24,3.05-13.24,5.87,0,.38,0,1.27,2.74,1.27,2.45,0,5.09-.49,7.88-1.01,3.13-.58,6.38-1.19,9.76-1.19,9.3,0,15.55,5.42,15.55,13.49,0,4.36-1.51,8.27-4.48,11.62-5.39,6.04-14.79,9.64-25.14,9.64m-13.14-11.53c-.37,0-1.24,.1-1.24,1.01,0,2.71,4.57,6.71,14.39,6.71,9.29,0,17.62-3.13,22.3-8.37,2.33-2.63,3.52-5.69,3.52-9.1,0-5.98-4.5-9.69-11.75-9.69-3.04,0-6.1,.57-9.07,1.12-2.97,.55-5.78,1.08-8.58,1.08-6.07,0-6.54-3.89-6.54-5.08,0-5.61,7.17-9.67,17.04-9.67,3.75,0,6.29,.73,9.06,2.59,.28,.19,.54,.38,.79,.57,.76,.58,1.15,.85,1.72,.85,.44,0,.89-.37,.89-1.08,0-1.46-3.96-4.19-11.53-4.19-11.99,0-21.03,4.89-21.03,11.38,0,5.62,5.97,6.45,9.53,6.45,2.93,0,5.91-.55,8.78-1.09,2.88-.54,5.6-1.05,8.29-1.05,5.75,0,9.04,3.1,9.04,8.51,0,3.91-1.79,7.32-5.19,9.87-4.45,3.33-10.65,5.24-17,5.24-5.48,0-8.54-1.25-11.7-4.78-1.05-1.14-1.27-1.31-1.73-1.31"/>
  <path class="cls-2" d="M730.6,232.42l.5,34.52c0,2.01-1.36,3.37-3.5,3.37-2,0-3.36-1.29-3.36-3.3l-.5-34.13c-4.29,.2-7.36,.32-9.29,.32-4,0-6-.65-6-2.85,0-1.88,1.64-2.59,4.78-2.59,4.5,0,9.79-.19,15.86-.58l14.57-.9h.36c2,0,3.29,.97,3.29,2.39,0,1.75-1.29,2.72-3.79,2.92l-12.93,.84Z"/>
  <path class="cls-2" d="M727.6,272.21c-3.05,0-5.26-2.19-5.26-5.2l-.47-32.15c-3.17,.14-5.72,.24-7.42,.24-2.36,0-7.9,0-7.9-4.75,0-2.98,2.25-4.49,6.68-4.49s9.75-.2,15.74-.58l15.05-.91c3.06,0,5.19,1.77,5.19,4.3,0,1.32-.54,4.42-5.54,4.81l-11.15,.73,.48,32.72c0,3.13-2.22,5.3-5.4,5.3m-1.99-41.32l.53,36.09c0,.96,.49,1.43,1.46,1.43,1.06,0,1.6-.49,1.6-1.47l-.53-36.3,14.73-.96c2.01-.16,2.01-.76,2.01-1.02,0-.27-.62-.5-1.39-.5h-.36l-14.46,.9c-6.06,.39-11.44,.59-15.98,.59-2.44,0-2.86,.48-2.86,.49,0,.01-.02,.08-.02,.21,0,.23,0,.95,4.1,.95,1.94,0,5.18-.14,9.2-.32l1.96-.09Z"/>
  <path class="cls-2" d="M186.36,297.08c-.21-.39-.4-.68-.55-.87-.23-.28-.52-.52-.87-.72-.36-.23-.75-.41-1.16-.52-.41-.12-.84-.18-1.3-.18-.81,0-1.54,.15-2.21,.45-.67,.3-1.24,.73-1.72,1.27-.48,.55-.82,1.13-1.01,1.76-.2,.63-.3,1.31-.3,2.04,0,.61,.1,1.27,.31,1.97,.21,.7,.48,1.3,.83,1.79,.44,.59,1.03,1.03,1.76,1.32,.73,.29,1.54,.44,2.44,.44,.73,0,1.44-.12,2.13-.37,.69-.25,1.3-.6,1.84-1.05,.47-.38,.73-.58,.78-.6,.2-.11,.4-.16,.59-.16,.23,0,.42,.06,.58,.19,.16,.13,.24,.28,.24,.47,0,.46-.42,.98-1.25,1.56-.32,.22-.69,.44-1.12,.64-.65,.32-1.39,.56-2.2,.74-.81,.17-1.62,.25-2.41,.25-2.49,0-4.59-.62-6.29-1.86-1.8-1.3-2.69-2.95-2.69-4.96s.94-3.74,2.82-5.15c1.88-1.41,4.09-2.11,6.63-2.11,.94,0,1.87,.1,2.8,.3,.92,.2,1.75,.51,2.5,.91,.2,.09,.36,.18,.48,.28,.12,.1,.21,.22,.26,.35s.1,.44,.15,.93c.05,.48,.07,.85,.07,1.1,0,.22-.09,.39-.27,.52-.18,.12-.41,.18-.68,.18-.21,0-.4-.06-.55-.17-.15-.12-.35-.37-.59-.75"/>
  <path class="cls-2" d="M194.85,296.09v5.3c0,.7,.03,1.29,.09,1.76,.06,.47,.24,.94,.54,1.41,.3,.47,.76,.83,1.39,1.1,.63,.27,1.31,.4,2.04,.4,.67,0,1.29-.12,1.87-.35,.67-.27,1.16-.63,1.46-1.08,.26-.39,.44-.91,.53-1.54,.04-.34,.07-.89,.07-1.65v-5.7c0-.23-.05-.4-.15-.49-.1-.09-.31-.2-.63-.32-.2-.06-.35-.13-.44-.22-.1-.09-.15-.21-.15-.37,0-.26,.12-.42,.36-.49,.24-.07,.58-.1,1.01-.1h1.96c.41,0,.74,.03,.99,.1,.25,.07,.38,.23,.38,.49,0,.12-.04,.23-.11,.32-.08,.09-.23,.18-.47,.28-.24,.09-.4,.16-.49,.21-.2,.12-.3,.32-.3,.59v5.45c0,1.05-.06,1.86-.18,2.41-.2,.9-.6,1.63-1.2,2.21-.6,.58-1.46,1.02-2.57,1.32-.94,.26-1.97,.39-3.08,.39-.94,0-1.86-.1-2.74-.31-1.06-.26-1.92-.63-2.56-1.12-.71-.54-1.21-1.26-1.48-2.15-.2-.64-.3-1.48-.3-2.52v-5.63c0-.17-.03-.32-.08-.44-.05-.12-.16-.21-.33-.26l-.27-.11c-.18-.1-.3-.17-.36-.22-.12-.1-.18-.22-.18-.37,0-.23,.11-.4,.34-.49,.23-.09,.49-.14,.8-.14h4.38c.47,0,.79,.05,.97,.16,.17,.1,.26,.26,.26,.47,0,.25-.19,.43-.56,.56-.37,.13-.59,.24-.65,.34-.06,.1-.11,.38-.16,.83"/>
  <path class="cls-2" d="M196.63,289.11h1c.41,0,.7,.06,.87,.17,.09,.06,.26,.28,.5,.65l1.19,1.66c.09,.1,.17,.21,.25,.33,.08,.12,.11,.22,.11,.29,0,.25-.18,.37-.55,.37-.12,0-.23-.02-.33-.06s-.29-.15-.58-.35l-2.92-1.77c-.12-.07-.25-.15-.39-.22-.23-.16-.34-.34-.34-.55s.09-.36,.26-.42,.42-.09,.74-.09h.18Z"/>
  <path class="cls-2" d="M221.17,302.15v-6.12c0-.25-.05-.44-.14-.59-.06-.13-.16-.24-.28-.3-.13-.07-.32-.14-.58-.21-.36-.15-.55-.36-.55-.63,0-.22,.11-.37,.33-.44,.22-.07,.51-.11,.86-.11h2.65c.44,0,.76,.05,.95,.15,.19,.1,.29,.23,.29,.4,0,.27-.18,.48-.55,.63-.32,.1-.49,.15-.52,.17-.17,.07-.28,.19-.34,.35-.09,.15-.13,.34-.13,.59v10.02c0,.54-.07,.88-.21,1.03-.18,.2-.6,.29-1.25,.29-.3,0-.54-.02-.7-.05-.16-.03-.32-.12-.49-.27-.17-.15-.44-.45-.82-.92-.27-.33-.55-.67-.82-1.01l-7.16-7.92v7.7l.14,.63c.06,.11,.14,.2,.24,.27,.1,.07,.32,.15,.68,.26,.36,.1,.54,.3,.54,.58,0,.22-.13,.37-.39,.46-.26,.08-.56,.13-.89,.13h-2.6c-.44,0-.76-.05-.95-.16-.19-.11-.29-.25-.29-.44,0-.28,.2-.48,.59-.59,.12-.04,.25-.07,.39-.11,.21-.09,.37-.22,.48-.4l.14-.63v-8.53c0-.38-.05-.66-.14-.83-.14-.26-.41-.44-.82-.55-.17-.04-.33-.07-.48-.11-.26-.1-.39-.27-.39-.52,0-.28,.1-.46,.32-.52,.21-.07,.53-.1,.96-.1h3.42c.29,0,.51,.03,.67,.08,.16,.06,.36,.19,.6,.4,.67,.55,1.57,1.46,2.69,2.73l1.51,1.7,3.06,3.5Z"/>
  <path class="cls-2" d="M242.02,296.71v.48c-.11,.4-.38,.59-.82,.59-.26,0-.45-.05-.57-.15-.12-.1-.24-.26-.34-.48-.24-.42-.43-.7-.55-.85-.2-.25-.47-.48-.82-.7-.78-.52-1.69-.78-2.74-.78-1.8,0-3.2,.63-4.22,1.88-.87,1.07-1.3,2.37-1.3,3.9,0,1.36,.4,2.55,1.19,3.55,.93,1.19,2.19,1.79,3.79,1.79,.47,0,.92-.06,1.35-.17,.43-.11,.78-.28,1.06-.51,.28-.23,.46-.54,.54-.91,.08-.37,.11-.8,.11-1.28,0-.66-.08-1.07-.23-1.23-.2-.21-.68-.31-1.46-.31h-.59c-.35,0-.62-.04-.8-.13-.26-.12-.39-.32-.39-.59,0-.31,.2-.52,.59-.63,.23-.06,.59-.09,1.09-.09h3.7c.4,0,.73,0,1.01,.03,.28,.02,.55,.06,.8,.11,.25,.06,.38,.22,.38,.47,0,.11,0,.21-.02,.31-.06,.26-.1,.44-.11,.52l-.14,1.3c0,.62,.09,1.22,.27,1.81l.05,.37c0,.36-.36,.72-1.07,1.07-.46,.24-1.01,.45-1.66,.63-.87,.26-1.66,.45-2.38,.58-.72,.13-1.49,.2-2.31,.2-2.65,0-4.82-.6-6.52-1.81-1.79-1.27-2.69-2.96-2.69-5.08s.93-3.91,2.81-5.25c1.79-1.29,4.05-1.93,6.77-1.93,.88,0,1.78,.08,2.69,.25,.91,.17,1.72,.41,2.42,.75,.23,.1,.37,.17,.43,.2,.24,.12,.42,.28,.52,.46,.06,.09,.11,.25,.14,.5,.03,.25,.05,.48,.05,.72v.41Z"/>
  <path class="cls-2" d="M261.77,307.22h-8.8c-.3,0-.57-.05-.8-.15-.23-.1-.34-.27-.34-.49,0-.15,.05-.28,.16-.38,.03-.02,.16-.1,.39-.23l.27-.12c.17-.07,.28-.16,.33-.27,.05-.11,.08-.25,.08-.42v-9.37c0-.17-.03-.32-.08-.44-.05-.12-.16-.21-.33-.26l-.27-.11c-.18-.1-.3-.17-.36-.23-.12-.1-.18-.23-.18-.38,0-.24,.11-.41,.34-.51,.23-.09,.49-.14,.8-.14h8.26c.96,0,1.69,.05,2.2,.14,.51,.09,.95,.23,1.31,.41,.59,.27,1.05,.61,1.36,1.01,.31,.41,.47,.88,.47,1.42,0,.69-.33,1.31-1.01,1.88-.58,.49-1.31,.89-2.19,1.18,1.23,.2,2.23,.59,3.01,1.18,.88,.67,1.32,1.5,1.32,2.47,0,.56-.16,1.09-.47,1.58-.31,.48-.76,.91-1.33,1.26-.58,.36-1.21,.6-1.88,.75-.68,.14-1.43,.21-2.25,.21m-4.61-10.9v3.54c1.77-.29,3.09-.76,3.98-1.4,.72-.52,1.08-1.12,1.08-1.81,0-.5-.2-.89-.59-1.16-.5-.33-1.34-.5-2.51-.5-.4,0-.73,.02-1.01,.06-.28,.04-.51,.13-.67,.28-.09,.07-.16,.19-.21,.33-.05,.15-.07,.29-.07,.44v.22Zm0,5.04v3.43c0,.17,.03,.32,.08,.45,.05,.13,.15,.25,.28,.36,.12,.07,.31,.14,.56,.19,.25,.05,.6,.07,1.04,.07,1.16,0,2.1-.2,2.83-.59,.85-.46,1.28-1.13,1.28-2.03,0-.59-.25-1.12-.76-1.59-.51-.47-1.13-.79-1.86-.96l-3.45,.67Z"/>
  <path class="cls-2" d="M270.99,307.22h-1.73c-.46,0-.77-.06-.93-.16-.17-.11-.25-.27-.25-.46,0-.09,.03-.17,.09-.24s.2-.18,.41-.31c.11-.05,.23-.11,.36-.18,.14-.07,.24-.21,.32-.4l.82-2.07c.26-.68,.58-1.39,.96-2.16,.31-.63,.66-1.31,1.07-2.05,.41-.74,.81-1.46,1.21-2.18,.53-.98,1.09-1.92,1.69-2.8,.2-.27,.4-.44,.62-.52,.21-.07,.55-.11,1.03-.11,.62,0,1.06,.07,1.3,.2,.24,.14,.49,.44,.75,.9l4.65,8.85,.82,1.92c.08,.13,.14,.24,.21,.3,.06,.07,.22,.17,.49,.3s.4,.31,.4,.53c0,.23-.11,.4-.33,.49-.22,.09-.49,.14-.81,.14h-3.88c-.4,0-.69-.02-.87-.07-.33-.09-.5-.26-.5-.51,0-.21,.16-.39,.48-.53,.32-.15,.48-.29,.48-.43,0-.12-.13-.52-.38-1.19s-.43-1.12-.54-1.36l-.09-.29h-6.39s-.18,.47-.5,1.25c-.25,.6-.36,1.01-.36,1.22,0,.25,.27,.52,.8,.81,.26,.14,.39,.31,.39,.52,0,.22-.13,.37-.39,.46-.26,.09-.56,.13-.89,.13h-.5Zm2.1-5.9h5.11l-.14-.29-2.42-4.61-2.55,4.91Z"/>
  <path class="cls-2" d="M276.41,310.8c-.47,0-.88-.13-1.22-.38-.34-.25-.51-.57-.51-.95s.17-.7,.51-.95c.34-.25,.75-.38,1.22-.38s.9,.12,1.23,.37c.33,.25,.5,.57,.5,.96,0,.37-.17,.68-.52,.94-.35,.26-.75,.39-1.21,.39"/>
  <path class="cls-2" d="M299.63,302.15v-6.12c0-.25-.05-.44-.14-.59-.06-.13-.16-.24-.28-.3-.13-.07-.32-.14-.58-.21-.36-.15-.55-.36-.55-.63,0-.22,.11-.37,.33-.44,.22-.07,.51-.11,.86-.11h2.65c.44,0,.76,.05,.95,.15,.19,.1,.29,.23,.29,.4,0,.27-.18,.48-.55,.63-.32,.1-.49,.15-.52,.17-.17,.07-.28,.19-.34,.35-.09,.15-.13,.34-.13,.59v10.02c0,.54-.07,.88-.21,1.03-.18,.2-.6,.29-1.25,.29-.3,0-.54-.02-.7-.05-.16-.03-.32-.12-.49-.27-.17-.15-.44-.45-.82-.92-.27-.33-.55-.67-.82-1.01l-7.16-7.92v7.7l.14,.63c.06,.11,.14,.2,.24,.27,.1,.07,.32,.15,.68,.26,.36,.1,.54,.3,.54,.58,0,.22-.13,.37-.39,.46-.26,.08-.56,.13-.89,.13h-2.6c-.44,0-.76-.05-.95-.16-.19-.11-.29-.25-.29-.44,0-.28,.2-.48,.59-.59,.12-.04,.25-.07,.39-.11,.21-.09,.37-.22,.48-.4l.14-.63v-8.53c0-.38-.05-.66-.14-.83-.14-.26-.41-.44-.82-.55-.17-.04-.33-.07-.48-.11-.26-.1-.39-.27-.39-.52,0-.28,.1-.46,.32-.52,.21-.07,.53-.1,.96-.1h3.42c.29,0,.51,.03,.67,.08,.16,.06,.36,.19,.6,.4,.67,.55,1.57,1.46,2.69,2.73l1.51,1.7,3.06,3.5Z"/>
  <path class="cls-2" d="M317.74,301.99v3.21c0,.15,.03,.29,.1,.41,.07,.13,.18,.22,.34,.29l.27,.11c.17,.1,.29,.17,.35,.22,.12,.1,.17,.22,.17,.37,0,.22-.11,.38-.33,.48-.22,.1-.49,.15-.81,.15h-4.33c-.29,0-.54-.05-.76-.15-.22-.1-.33-.26-.33-.48,0-.16,.05-.28,.14-.37,.05-.04,.18-.11,.41-.22l.23-.11c.17-.07,.28-.17,.33-.28,.05-.11,.08-.25,.08-.42v-9.43c0-.17-.03-.32-.08-.44-.05-.12-.16-.21-.33-.26l-.23-.11c-.18-.09-.32-.17-.41-.25-.09-.08-.14-.19-.14-.34,0-.23,.11-.4,.32-.49,.21-.09,.47-.14,.78-.14h4.33c.32,0,.59,.05,.81,.14,.22,.09,.33,.25,.33,.49,0,.15-.05,.27-.15,.37-.03,.02-.15,.1-.37,.22l-.27,.11c-.16,.05-.27,.14-.34,.27-.06,.13-.1,.27-.1,.43v4.52l3.74-2.43c.84-.61,1.49-1.14,1.95-1.57s.7-.74,.7-.93c0-.17-.17-.34-.5-.5-.33-.16-.5-.35-.5-.57,0-.2,.1-.34,.31-.42,.21-.09,.45-.13,.74-.13h2.83c.38,0,.71,.04,.99,.13,.28,.08,.42,.28,.42,.57,0,.17-.06,.31-.19,.4-.13,.1-.31,.18-.54,.26-.44,.17-.83,.39-1.16,.66-.21,.16-.52,.45-.93,.88l-2.97,2.47c1,.85,1.95,1.79,2.85,2.82,.71,.82,1.51,1.86,2.39,3.11,.17,.23,.27,.37,.3,.42,.2,.23,.44,.41,.73,.53,.29,.12,.46,.2,.5,.24,.11,.09,.16,.23,.16,.42,0,.22-.11,.37-.33,.44-.22,.07-.48,.11-.76,.11h-4.38c-.38,0-.68-.03-.89-.09-.35-.1-.52-.28-.52-.53,0-.2,.18-.41,.55-.63,.18-.11,.27-.21,.27-.3,0-.4-.54-1.22-1.62-2.45-.91-1.03-1.7-1.81-2.35-2.34l-1.78,1.11Z"/>
  <path class="cls-2" d="M335.99,300.58v4.61c0,.15,.03,.28,.1,.41,.07,.13,.18,.22,.34,.28l.22,.11c.17,.09,.31,.17,.4,.25,.09,.08,.13,.2,.13,.34,0,.22-.1,.38-.31,.48-.21,.1-.47,.15-.79,.15h-4.33c-.3,0-.57-.05-.8-.15-.23-.1-.34-.26-.34-.48,0-.15,.05-.27,.16-.37,.03-.02,.16-.1,.39-.22l.27-.11c.17-.07,.28-.17,.33-.28,.05-.11,.08-.25,.08-.42v-9.43c0-.17-.03-.32-.08-.44-.05-.12-.16-.21-.33-.26l-.27-.11c-.18-.1-.3-.17-.36-.22-.12-.1-.18-.22-.18-.37,0-.24,.11-.4,.34-.49,.23-.09,.49-.14,.8-.14h4.33c.32,0,.58,.05,.79,.14,.21,.09,.31,.25,.31,.49,0,.16-.03,.27-.1,.33-.06,.06-.21,.15-.43,.26l-.22,.11c-.16,.05-.27,.14-.34,.27-.07,.13-.1,.27-.1,.43v3.42h6.8v-3.42c0-.17-.03-.32-.08-.44-.06-.12-.17-.21-.33-.26l-.27-.11c-.18-.1-.3-.17-.36-.22-.12-.1-.18-.22-.18-.37,0-.23,.11-.4,.34-.49,.23-.09,.49-.14,.8-.14h4.33c.32,0,.58,.05,.79,.14,.21,.09,.31,.25,.31,.49,0,.16-.03,.27-.1,.33-.06,.06-.21,.15-.43,.26l-.22,.11c-.16,.05-.28,.14-.34,.27-.07,.13-.1,.28-.1,.43v9.43c0,.15,.03,.29,.1,.41,.07,.13,.18,.23,.34,.29l.22,.11c.17,.09,.31,.17,.4,.25,.09,.08,.13,.19,.13,.34,0,.22-.1,.38-.31,.48-.21,.1-.47,.15-.79,.15h-4.33c-.3,0-.57-.05-.8-.15-.23-.1-.34-.26-.34-.48,0-.15,.05-.27,.16-.37,.03-.02,.16-.1,.39-.22l.27-.11c.17-.07,.28-.17,.33-.28,.05-.11,.08-.25,.08-.42v-4.61h-6.8Z"/>
  <path class="cls-2" d="M351.32,307.22h-1.73c-.46,0-.77-.06-.93-.16-.17-.11-.25-.27-.25-.46,0-.09,.03-.17,.09-.24s.2-.18,.41-.31c.11-.05,.23-.11,.36-.18,.14-.07,.24-.21,.32-.4l.82-2.07c.26-.68,.58-1.39,.96-2.16,.31-.63,.66-1.31,1.07-2.05,.41-.74,.81-1.46,1.21-2.18,.53-.98,1.09-1.92,1.69-2.8,.2-.27,.4-.44,.62-.52,.21-.07,.55-.11,1.03-.11,.62,0,1.06,.07,1.3,.2,.24,.14,.49,.44,.75,.9l4.65,8.85,.82,1.92c.07,.13,.14,.24,.2,.3,.06,.07,.22,.17,.49,.3,.27,.13,.4,.31,.4,.53,0,.23-.11,.4-.33,.49-.22,.09-.49,.14-.81,.14h-3.88c-.4,0-.69-.02-.87-.07-.33-.09-.5-.26-.5-.51,0-.21,.16-.39,.48-.53,.32-.15,.48-.29,.48-.43,0-.12-.13-.52-.38-1.19-.25-.67-.43-1.12-.54-1.36l-.09-.29h-6.39s-.18,.47-.5,1.25c-.25,.6-.36,1.01-.36,1.22,0,.25,.27,.52,.8,.81,.26,.14,.39,.31,.39,.52,0,.22-.13,.37-.39,.46-.26,.09-.56,.13-.89,.13h-.5Zm2.1-5.9h5.11l-.14-.29-2.42-4.61-2.55,4.91Z"/>
  <path class="cls-2" d="M358.85,290.44l-2.92,1.73c-.15,.09-.32,.17-.49,.27-.17,.09-.33,.14-.47,.14-.33,0-.5-.12-.5-.37,0-.09,.04-.18,.11-.29,.08-.1,.14-.21,.21-.3l1.19-1.69c.2-.26,.34-.43,.41-.5,.18-.18,.5-.28,.96-.28h1.46c.23,0,.41,.04,.56,.11s.22,.21,.22,.41c0,.13-.05,.25-.14,.35-.02,.02-.21,.17-.59,.42"/>
  <path class="cls-2" d="M376.81,301.63l3.51-6.95c.17-.31,.3-.52,.39-.61,.2-.22,.57-.32,1.12-.32h4.25c.52,0,.78,.22,.78,.66,0,.22-.14,.39-.41,.52-.1,.05-.28,.1-.52,.16-.25,.06-.41,.15-.49,.29s-.12,.35-.12,.62v9.21c0,.15,.03,.29,.1,.41s.18,.22,.34,.28l.26,.11c.18,.1,.29,.17,.35,.22,.12,.1,.17,.22,.17,.37,0,.22-.11,.38-.33,.48-.22,.1-.49,.15-.81,.15h-4.34c-.29,0-.54-.05-.76-.15-.22-.1-.33-.26-.33-.48,0-.16,.05-.28,.14-.37,.05-.04,.18-.11,.41-.22l.23-.11c.17-.07,.28-.17,.33-.28,.05-.11,.08-.25,.08-.42v-8.34l-3.69,7.42c-.24,.45-.37,.69-.39,.72-.23,.31-.65,.46-1.25,.46-.55,0-.92-.04-1.12-.12-.2-.08-.4-.3-.62-.65l-4.01-7.58v7.81l.14,.63c.06,.11,.14,.2,.24,.27,.1,.07,.33,.15,.69,.26,.36,.1,.54,.3,.54,.58,0,.22-.13,.37-.39,.46-.26,.09-.56,.13-.89,.13h-2.6c-.44,0-.76-.05-.95-.16-.19-.1-.29-.25-.29-.43,0-.28,.2-.48,.59-.59,.12-.04,.25-.07,.39-.11,.21-.09,.37-.22,.48-.4l.14-.63v-8.84c0-.15-.03-.27-.09-.37-.09-.33-.38-.57-.87-.7-.17-.04-.32-.07-.48-.11-.26-.1-.39-.27-.39-.51,0-.28,.11-.46,.32-.53,.21-.07,.53-.1,.96-.1h4.47c.49,0,.84,.12,1.05,.36,.08,.07,.24,.38,.5,.92l3.19,6.6Z"/>
  <path class="cls-2" d="M401.09,302.13v2.77l.14,.63c.06,.11,.14,.2,.24,.27,.1,.07,.33,.15,.69,.26,.36,.1,.53,.3,.53,.58,0,.22-.13,.37-.39,.46-.26,.09-.55,.13-.89,.13h-4.56c-.29,0-.55-.05-.76-.15-.22-.1-.33-.26-.33-.48,0-.16,.05-.28,.14-.37,.05-.03,.18-.11,.41-.22l.23-.11c.17-.07,.28-.16,.33-.28,.05-.11,.08-.25,.08-.43v-9.46c0-.17-.03-.32-.08-.44-.05-.12-.16-.21-.33-.26l-.23-.11c-.18-.08-.32-.16-.41-.24-.09-.08-.14-.19-.14-.33,0-.23,.11-.39,.32-.48s.47-.13,.78-.13h7.07c1.17,0,2.05,.05,2.64,.15,.59,.1,1.15,.26,1.7,.48,.74,.32,1.33,.74,1.74,1.25,.42,.52,.63,1.1,.63,1.77,0,.83-.33,1.59-1.01,2.26-.58,.59-1.37,1.09-2.37,1.49-.88,.34-1.85,.6-2.91,.76-1.06,.16-2.14,.24-3.25,.24m0-5.7v4.27c1.37-.13,2.49-.42,3.35-.86,1.14-.58,1.71-1.35,1.71-2.33,0-.77-.3-1.38-.9-1.81-.6-.43-1.39-.65-2.38-.65-.35,0-.64,.02-.86,.06-.22,.04-.4,.11-.54,.22-.14,.11-.24,.24-.3,.39-.06,.15-.09,.39-.09,.74"/>
  <path class="cls-2" d="M417.1,300.58v4.61c0,.15,.03,.28,.1,.41,.07,.13,.18,.22,.34,.28l.22,.11c.17,.09,.31,.17,.4,.25,.09,.08,.13,.2,.13,.34,0,.22-.1,.38-.31,.48-.21,.1-.47,.15-.79,.15h-4.33c-.31,0-.57-.05-.8-.15-.23-.1-.34-.26-.34-.48,0-.15,.05-.27,.16-.37,.03-.02,.16-.1,.39-.22l.28-.11c.17-.07,.28-.17,.33-.28,.05-.11,.08-.25,.08-.42v-9.43c0-.17-.03-.32-.08-.44-.05-.12-.16-.21-.33-.26l-.28-.11c-.18-.1-.3-.17-.36-.22-.12-.1-.18-.22-.18-.37,0-.24,.11-.4,.34-.49,.23-.09,.49-.14,.8-.14h4.33c.32,0,.58,.05,.79,.14,.21,.09,.31,.25,.31,.49,0,.16-.03,.27-.1,.33-.07,.06-.21,.15-.43,.26l-.22,.11c-.16,.05-.27,.14-.34,.27-.06,.13-.1,.27-.1,.43v3.42h6.8v-3.42c0-.17-.03-.32-.08-.44-.05-.12-.16-.21-.33-.26l-.27-.11c-.18-.1-.3-.17-.36-.22-.12-.1-.18-.22-.18-.37,0-.23,.11-.4,.34-.49,.23-.09,.49-.14,.8-.14h4.34c.32,0,.58,.05,.79,.14,.2,.09,.31,.25,.31,.49,0,.16-.03,.27-.1,.33-.06,.06-.21,.15-.43,.26l-.22,.11c-.16,.05-.27,.14-.34,.27-.07,.13-.1,.28-.1,.43v9.43c0,.15,.03,.29,.1,.41,.07,.13,.18,.23,.34,.29l.22,.11c.17,.09,.31,.17,.4,.25s.13,.19,.13,.34c0,.22-.1,.38-.31,.48-.21,.1-.47,.15-.79,.15h-4.34c-.3,0-.57-.05-.8-.15-.23-.1-.34-.26-.34-.48,0-.15,.05-.27,.16-.37,.03-.02,.16-.1,.39-.22l.27-.11c.17-.07,.28-.17,.33-.28,.05-.11,.08-.25,.08-.42v-4.61h-6.8Z"/>
  <path class="cls-2" d="M432.43,307.22h-1.73c-.46,0-.77-.06-.93-.16-.17-.11-.25-.27-.25-.46,0-.09,.03-.17,.09-.24,.06-.07,.2-.18,.41-.31,.11-.05,.23-.11,.36-.18,.14-.07,.24-.21,.32-.4l.82-2.07c.26-.68,.58-1.39,.96-2.16,.3-.63,.66-1.31,1.07-2.05,.41-.74,.81-1.46,1.21-2.18,.53-.98,1.09-1.92,1.69-2.8,.2-.27,.4-.44,.62-.52s.55-.11,1.03-.11c.62,0,1.06,.07,1.3,.2,.24,.14,.49,.44,.75,.9l4.65,8.85,.82,1.92c.08,.13,.14,.24,.2,.3,.06,.07,.23,.17,.49,.3,.27,.13,.4,.31,.4,.53,0,.23-.11,.4-.33,.49-.22,.09-.49,.14-.81,.14h-3.88c-.4,0-.68-.02-.87-.07-.33-.09-.5-.26-.5-.51,0-.21,.16-.39,.48-.53,.32-.15,.48-.29,.48-.43,0-.12-.13-.52-.38-1.19-.25-.67-.43-1.12-.54-1.36l-.09-.29h-6.39s-.18,.47-.5,1.25c-.24,.6-.36,1.01-.36,1.22,0,.25,.27,.52,.8,.81,.26,.14,.39,.31,.39,.52,0,.22-.13,.37-.39,.46-.26,.09-.55,.13-.89,.13h-.5Zm2.1-5.9h5.11l-.14-.29-2.42-4.61-2.56,4.91Z"/>
  <path class="cls-2" d="M439.96,290.44l-2.92,1.73c-.15,.09-.32,.17-.49,.27-.17,.09-.33,.14-.47,.14-.33,0-.5-.12-.5-.37,0-.09,.04-.18,.11-.29,.08-.1,.14-.21,.21-.3l1.19-1.69c.2-.26,.33-.43,.41-.5,.18-.18,.5-.28,.96-.28h1.46c.23,0,.41,.04,.56,.11,.14,.07,.22,.21,.22,.41,0,.13-.05,.25-.14,.35-.02,.02-.21,.17-.59,.42"/>
  <path class="cls-2" d="M468.92,302.15v-6.12c0-.25-.04-.44-.14-.59-.06-.13-.16-.24-.28-.3s-.32-.14-.58-.21c-.36-.15-.55-.36-.55-.63,0-.22,.11-.37,.33-.44,.22-.07,.51-.11,.86-.11h2.64c.44,0,.76,.05,.95,.15,.19,.1,.29,.23,.29,.4,0,.27-.18,.48-.55,.63-.32,.1-.49,.15-.53,.17-.17,.07-.28,.19-.34,.35-.09,.15-.14,.34-.14,.59v10.02c0,.54-.07,.88-.2,1.03-.18,.2-.6,.29-1.25,.29-.31,0-.54-.02-.7-.05-.16-.03-.32-.12-.49-.27-.17-.15-.44-.45-.82-.92-.28-.33-.55-.67-.82-1.01l-7.16-7.92v7.7l.14,.63c.06,.11,.14,.2,.24,.27s.33,.15,.68,.26c.36,.1,.54,.3,.54,.58,0,.22-.13,.37-.39,.46-.26,.08-.55,.13-.89,.13h-2.6c-.44,0-.76-.05-.95-.16-.19-.11-.29-.25-.29-.44,0-.28,.2-.48,.59-.59,.12-.04,.25-.07,.39-.11,.21-.09,.37-.22,.48-.4l.14-.63v-8.53c0-.38-.05-.66-.14-.83-.14-.26-.41-.44-.82-.55-.17-.04-.33-.07-.48-.11-.26-.1-.39-.27-.39-.52,0-.28,.11-.46,.32-.52,.21-.07,.53-.1,.96-.1h3.42c.29,0,.51,.03,.67,.08,.16,.06,.36,.19,.61,.4,.67,.55,1.57,1.46,2.69,2.73,.5,.57,1,1.13,1.5,1.7l3.06,3.5Z"/>
  <path class="cls-2" d="M479.14,300.58v4.61c0,.15,.03,.28,.1,.41,.07,.13,.18,.22,.34,.28l.22,.11c.17,.09,.31,.17,.4,.25,.09,.08,.13,.2,.13,.34,0,.22-.1,.38-.31,.48-.21,.1-.47,.15-.79,.15h-4.33c-.31,0-.57-.05-.8-.15-.23-.1-.34-.26-.34-.48,0-.15,.05-.27,.16-.37,.03-.02,.16-.1,.39-.22l.28-.11c.17-.07,.28-.17,.33-.28,.05-.11,.08-.25,.08-.42v-9.43c0-.17-.03-.32-.08-.44-.05-.12-.16-.21-.33-.26l-.28-.11c-.18-.1-.3-.17-.36-.22-.12-.1-.18-.22-.18-.37,0-.24,.11-.4,.34-.49,.23-.09,.49-.14,.8-.14h4.33c.32,0,.58,.05,.79,.14,.21,.09,.31,.25,.31,.49,0,.16-.03,.27-.1,.33-.07,.06-.21,.15-.43,.26l-.22,.11c-.16,.05-.27,.14-.34,.27-.06,.13-.1,.27-.1,.43v3.42h6.8v-3.42c0-.17-.03-.32-.08-.44-.05-.12-.16-.21-.33-.26l-.27-.11c-.18-.1-.3-.17-.36-.22-.12-.1-.18-.22-.18-.37,0-.23,.11-.4,.34-.49,.23-.09,.49-.14,.8-.14h4.34c.32,0,.58,.05,.79,.14,.2,.09,.31,.25,.31,.49,0,.16-.03,.27-.1,.33-.06,.06-.21,.15-.43,.26l-.22,.11c-.16,.05-.27,.14-.34,.27-.07,.13-.1,.28-.1,.43v9.43c0,.15,.03,.29,.1,.41,.07,.13,.18,.23,.34,.29l.22,.11c.17,.09,.31,.17,.4,.25s.13,.19,.13,.34c0,.22-.1,.38-.31,.48-.21,.1-.47,.15-.79,.15h-4.34c-.3,0-.57-.05-.8-.15-.23-.1-.34-.26-.34-.48,0-.15,.05-.27,.16-.37,.03-.02,.16-.1,.39-.22l.27-.11c.17-.07,.28-.17,.33-.28,.05-.11,.08-.25,.08-.42v-4.61h-6.8Z"/>
  <path class="cls-2" d="M507.29,294.24c.11-.04,.22-.07,.34-.11,.14-.07,.24-.13,.32-.17,.08-.04,.16-.11,.25-.2,.05-.04,.15-.15,.32-.33-.82-.12-1.23-.54-1.23-1.26v-.04c0-.37,.17-.69,.5-.95,.33-.26,.72-.39,1.17-.39,.36,0,.67,.08,.92,.24,.25,.16,.44,.39,.56,.68l.09,.51-.09,.52c-.18,.45-.48,.84-.89,1.16-.41,.32-.9,.57-1.48,.76-.05,.03-.18,.09-.4,.15-.22,.06-.35,.1-.38,.11v6.24c0,1.06-.06,1.86-.18,2.41-.2,.9-.6,1.63-1.2,2.21-.6,.58-1.46,1.02-2.57,1.33-.94,.26-1.97,.39-3.08,.39-.94,0-1.86-.1-2.74-.31-1.06-.26-1.92-.63-2.55-1.12-.71-.54-1.21-1.26-1.48-2.16-.2-.64-.3-1.48-.3-2.52v-5.64c0-.17-.03-.32-.08-.44-.05-.12-.16-.21-.33-.26l-.27-.11c-.18-.1-.3-.17-.36-.22-.12-.1-.18-.22-.18-.37,0-.23,.11-.4,.34-.49s.49-.14,.8-.14h4.38c.47,0,.79,.05,.97,.16,.17,.1,.26,.26,.26,.47,0,.25-.19,.43-.56,.56-.37,.13-.59,.24-.65,.34-.06,.1-.11,.37-.16,.83v5.3c0,.7,.03,1.28,.09,1.76,.06,.47,.24,.94,.54,1.41,.3,.47,.76,.83,1.39,1.1s1.31,.41,2.04,.41c.67,0,1.29-.12,1.87-.35,.67-.27,1.16-.63,1.46-1.09,.26-.39,.44-.91,.53-1.55,.05-.34,.07-.89,.07-1.66v-5.71c0-.23-.05-.4-.15-.49-.1-.09-.31-.2-.63-.32-.2-.06-.35-.14-.45-.22s-.15-.21-.15-.37c0-.26,.12-.42,.36-.49,.24-.07,.58-.1,1.01-.1h1.96v.51Z"/>
  <path class="cls-2" d="M500.67,291.73l-1.23-.51c-.32-.11-.52-.18-.59-.21-.23-.06-.44-.09-.64-.09-.24,0-.44,.05-.6,.15-.16,.1-.32,.25-.49,.46-.09,.14-.17,.24-.23,.29-.11,.11-.23,.17-.36,.17-.27,0-.41-.13-.41-.38,0-.22,.06-.44,.18-.63,.12-.2,.29-.4,.5-.6,.64-.65,1.45-.97,2.42-.97,.56,0,1.24,.18,2.03,.55,.79,.37,1.36,.55,1.71,.55,.37,0,.71-.15,1.05-.44,.33-.29,.55-.44,.64-.44,.3,0,.46,.13,.46,.4,0,.17-.1,.39-.3,.65-.06,.07-.16,.19-.3,.35-.65,.64-1.52,.96-2.6,.96-.4,0-.81-.09-1.23-.26"/>
  <path class="cls-2" d="M523.66,302.15v-6.12c0-.25-.04-.44-.14-.59-.06-.13-.16-.24-.28-.3s-.32-.14-.58-.21c-.36-.15-.55-.36-.55-.63,0-.22,.11-.37,.33-.44,.22-.07,.51-.11,.86-.11h2.64c.44,0,.76,.05,.95,.15,.19,.1,.29,.23,.29,.4,0,.27-.18,.48-.55,.63-.32,.1-.49,.15-.53,.17-.17,.07-.28,.19-.34,.35-.09,.15-.14,.34-.14,.59v10.02c0,.54-.07,.88-.2,1.03-.18,.2-.6,.29-1.25,.29-.31,0-.54-.02-.7-.05-.16-.03-.32-.12-.49-.27-.17-.15-.44-.45-.82-.92-.28-.33-.55-.67-.82-1.01l-7.16-7.92v7.7l.14,.63c.06,.11,.14,.2,.24,.27s.33,.15,.68,.26c.36,.1,.54,.3,.54,.58,0,.22-.13,.37-.39,.46-.26,.08-.55,.13-.89,.13h-2.6c-.44,0-.76-.05-.95-.16-.19-.11-.29-.25-.29-.44,0-.28,.2-.48,.59-.59,.12-.04,.25-.07,.39-.11,.21-.09,.37-.22,.48-.4l.14-.63v-8.53c0-.38-.05-.66-.14-.83-.14-.26-.41-.44-.82-.55-.17-.04-.33-.07-.48-.11-.26-.1-.39-.27-.39-.52,0-.28,.11-.46,.32-.52,.21-.07,.53-.1,.96-.1h3.42c.29,0,.51,.03,.67,.08,.16,.06,.36,.19,.61,.4,.67,.55,1.57,1.46,2.69,2.73,.5,.57,1,1.13,1.5,1.7l3.06,3.5Z"/>
  <path class="cls-2" d="M544.51,296.71v.48c-.11,.4-.38,.59-.82,.59-.26,0-.45-.05-.57-.15-.12-.1-.24-.26-.34-.48-.24-.42-.43-.7-.55-.85-.2-.25-.47-.48-.82-.7-.78-.52-1.69-.78-2.74-.78-1.8,0-3.2,.63-4.22,1.88-.87,1.07-1.3,2.37-1.3,3.9,0,1.36,.4,2.55,1.19,3.55,.93,1.19,2.19,1.79,3.79,1.79,.47,0,.92-.06,1.35-.17,.42-.11,.78-.28,1.06-.51,.28-.23,.46-.54,.54-.91,.08-.37,.11-.8,.11-1.28,0-.66-.08-1.07-.23-1.23-.2-.21-.68-.31-1.46-.31h-.59c-.35,0-.61-.04-.8-.13-.26-.12-.39-.32-.39-.59,0-.31,.2-.52,.59-.63,.23-.06,.59-.09,1.1-.09h3.69c.4,0,.74,0,1.01,.03,.28,.02,.55,.06,.8,.11,.25,.06,.37,.22,.37,.47,0,.11,0,.21-.02,.31-.06,.26-.1,.44-.11,.52l-.14,1.3c0,.62,.09,1.22,.27,1.81l.05,.37c0,.36-.36,.72-1.07,1.07-.46,.24-1.01,.45-1.66,.63-.87,.26-1.66,.45-2.38,.58-.72,.13-1.49,.2-2.31,.2-2.65,0-4.82-.6-6.52-1.81-1.79-1.27-2.69-2.96-2.69-5.08s.93-3.91,2.81-5.25c1.79-1.29,4.05-1.93,6.77-1.93,.88,0,1.78,.08,2.69,.25,.91,.17,1.72,.41,2.42,.75,.23,.1,.37,.17,.43,.2,.24,.12,.42,.28,.52,.46,.06,.09,.11,.25,.14,.5,.03,.25,.04,.48,.04,.72v.41Z"/>
  <path class="cls-2" d="M564.39,301.63l3.51-6.95c.17-.31,.3-.52,.39-.61,.2-.22,.57-.32,1.12-.32h4.25c.52,0,.78,.22,.78,.66,0,.22-.14,.39-.41,.52-.1,.05-.28,.1-.52,.16-.25,.06-.41,.15-.49,.29s-.12,.35-.12,.62v9.21c0,.15,.03,.29,.1,.41s.18,.22,.34,.28l.26,.11c.18,.1,.29,.17,.35,.22,.12,.1,.17,.22,.17,.37,0,.22-.11,.38-.33,.48-.22,.1-.49,.15-.81,.15h-4.34c-.29,0-.54-.05-.76-.15-.22-.1-.33-.26-.33-.48,0-.16,.05-.28,.14-.37,.05-.04,.18-.11,.41-.22l.23-.11c.17-.07,.28-.17,.33-.28,.05-.11,.08-.25,.08-.42v-8.34l-3.69,7.42c-.24,.45-.37,.69-.39,.72-.23,.31-.65,.46-1.25,.46-.55,0-.92-.04-1.12-.12-.2-.08-.4-.3-.62-.65l-4.01-7.58v7.81l.14,.63c.06,.11,.14,.2,.24,.27,.1,.07,.33,.15,.69,.26,.36,.1,.54,.3,.54,.58,0,.22-.13,.37-.39,.46-.26,.09-.56,.13-.89,.13h-2.6c-.44,0-.76-.05-.95-.16-.19-.1-.29-.25-.29-.43,0-.28,.2-.48,.59-.59,.12-.04,.25-.07,.39-.11,.21-.09,.37-.22,.48-.4l.14-.63v-8.84c0-.15-.03-.27-.09-.37-.09-.33-.38-.57-.87-.7-.17-.04-.32-.07-.48-.11-.26-.1-.39-.27-.39-.51,0-.28,.11-.46,.32-.53,.21-.07,.53-.1,.96-.1h4.47c.49,0,.84,.12,1.05,.36,.08,.07,.24,.38,.5,.92l3.19,6.6Z"/>
  <path class="cls-2" d="M576.72,304.87v-9.1c0-.17-.03-.32-.08-.44-.05-.12-.16-.21-.33-.26l-.23-.11c-.18-.09-.32-.17-.41-.25-.09-.08-.14-.19-.14-.34,0-.23,.11-.4,.32-.49,.21-.09,.47-.14,.78-.14h4.33c.32,0,.59,.04,.81,.14,.22,.09,.33,.25,.33,.49,0,.15-.05,.27-.15,.37-.03,.02-.15,.1-.37,.22l-.26,.11c-.16,.05-.28,.14-.34,.27-.07,.13-.1,.28-.1,.43v9.43c0,.15,.03,.29,.1,.41,.06,.13,.18,.22,.34,.29l.26,.11c.17,.1,.29,.17,.35,.22,.12,.1,.18,.22,.18,.37,0,.22-.11,.38-.33,.48-.22,.1-.49,.15-.81,.15h-4.33c-.29,0-.54-.05-.76-.15-.22-.1-.33-.26-.33-.48,0-.16,.05-.28,.14-.37,.05-.04,.18-.11,.41-.22l.23-.11c.17-.07,.28-.17,.33-.28,.05-.11,.08-.25,.08-.42v-.33Z"/>
  <path class="cls-2" d="M588.72,300.66v3.17c0,.96,.18,1.54,.52,1.75,.35,.21,1.3,.31,2.85,.31,.81,0,1.39-.04,1.76-.13,.5-.12,1-.39,1.48-.79,.32-.29,.53-.48,.64-.55,.3-.22,.58-.33,.82-.33,.21,0,.4,.06,.57,.17,.17,.11,.25,.25,.25,.42,0,.23-.05,.5-.14,.79-.09,.29-.21,.6-.36,.9-.14,.38-.28,.62-.44,.71-.16,.09-.51,.14-1.06,.14h-11.13c-.31,0-.57-.05-.8-.15-.23-.1-.34-.26-.34-.48,0-.15,.05-.27,.16-.37,.03-.02,.16-.1,.39-.22l.28-.11c.17-.07,.28-.17,.33-.28,.06-.11,.08-.25,.08-.42v-9.46c0-.17-.02-.32-.08-.44-.05-.13-.16-.21-.33-.26l-.28-.11c-.18-.09-.3-.17-.36-.21-.12-.1-.18-.21-.18-.36,0-.23,.12-.39,.34-.48,.23-.09,.49-.13,.8-.13h10.9c.21,0,.41,.02,.59,.05,.18,.03,.32,.1,.42,.2,.1,.1,.18,.36,.25,.75,.07,.4,.1,.71,.1,.94,0,.25-.06,.44-.19,.59-.13,.15-.34,.22-.63,.22-.23,0-.43-.06-.59-.17-.08-.05-.22-.17-.43-.37-.21-.2-.43-.36-.64-.48-.21-.12-.46-.21-.74-.27-.28-.06-.64-.1-1.09-.13-.45-.02-.86-.04-1.24-.04-.44,0-.81,0-1.12,.03-.3,.02-.57,.06-.8,.12-.36,.12-.55,.31-.55,.55v3.42h3.42c.66,0,1.17-.15,1.55-.44,.2-.15,.4-.22,.59-.22,.35,0,.58,.16,.71,.46,.08,.2,.11,.46,.11,.79v.29c0,.35-.04,.62-.13,.81-.14,.29-.36,.44-.68,.44-.18,0-.44-.1-.78-.31-.33-.21-.79-.31-1.37-.31h-3.42Z"/>
  <path class="cls-2" d="M589.59,290.92l-2.92,1.46c-.21,.12-.36,.19-.43,.22-.17,.07-.33,.11-.48,.11-.28,0-.41-.12-.41-.37,0-.11,.05-.22,.14-.32,.09-.1,.21-.22,.37-.34l2.33-1.95c.24-.22,.45-.38,.62-.5,.29-.18,.55-.27,.8-.27,.17,0,.35,.05,.55,.16,.2,.1,.49,.31,.87,.61l2.33,1.91c.14,.11,.26,.23,.38,.35,.11,.12,.17,.24,.17,.35,0,.1-.05,.18-.14,.26-.09,.07-.2,.11-.32,.11s-.26-.04-.43-.11c-.21-.11-.36-.18-.43-.22l-2.96-1.46Zm.36-5.05h1c.41,0,.7,.06,.87,.17,.09,.06,.26,.28,.5,.65l1.19,1.66c.09,.1,.17,.21,.25,.33,.08,.12,.11,.22,.11,.29,0,.25-.18,.37-.55,.37-.12,0-.23-.02-.33-.06-.1-.04-.29-.15-.58-.35l-2.92-1.77c-.12-.07-.25-.15-.39-.22-.23-.16-.34-.34-.34-.55s.09-.36,.26-.42c.17-.06,.42-.09,.74-.09h.18Z"/>
  <path class="cls-2" d="M612.89,302.15v-6.12c0-.25-.04-.44-.14-.59-.06-.13-.16-.24-.28-.3s-.32-.14-.58-.21c-.36-.15-.55-.36-.55-.63,0-.22,.11-.37,.33-.44,.22-.07,.51-.11,.86-.11h2.64c.44,0,.76,.05,.95,.15,.19,.1,.29,.23,.29,.4,0,.27-.18,.48-.55,.63-.32,.1-.49,.15-.53,.17-.17,.07-.28,.19-.34,.35-.09,.15-.14,.34-.14,.59v10.02c0,.54-.07,.88-.2,1.03-.18,.2-.6,.29-1.25,.29-.31,0-.54-.02-.7-.05-.16-.03-.32-.12-.49-.27-.17-.15-.44-.45-.82-.92-.28-.33-.55-.67-.82-1.01l-7.16-7.92v7.7l.14,.63c.06,.11,.14,.2,.24,.27s.33,.15,.68,.26c.36,.1,.54,.3,.54,.58,0,.22-.13,.37-.39,.46-.26,.08-.55,.13-.89,.13h-2.6c-.44,0-.76-.05-.95-.16-.19-.11-.29-.25-.29-.44,0-.28,.2-.48,.59-.59,.12-.04,.25-.07,.39-.11,.21-.09,.37-.22,.48-.4l.14-.63v-8.53c0-.38-.05-.66-.14-.83-.14-.26-.41-.44-.82-.55-.17-.04-.33-.07-.48-.11-.26-.1-.39-.27-.39-.52,0-.28,.11-.46,.32-.52,.21-.07,.53-.1,.96-.1h3.42c.29,0,.51,.03,.67,.08,.16,.06,.36,.19,.61,.4,.67,.55,1.57,1.46,2.69,2.73,.5,.57,1,1.13,1.5,1.7l3.06,3.5Z"/>
  <path class="cls-2" d="M626.76,301.03c-.4,0-.7-.07-.91-.21-.21-.14-.32-.37-.32-.7,0-.25,.1-.43,.31-.54,.21-.1,.51-.18,.92-.22v-3.63c0-.17-.02-.32-.08-.44-.05-.12-.16-.21-.33-.26l-.28-.11c-.18-.09-.3-.17-.36-.21-.12-.09-.18-.21-.18-.36,0-.23,.12-.39,.34-.48,.23-.09,.49-.13,.8-.13h6.57c1.43,0,2.58,.08,3.44,.24,1.17,.22,2.21,.62,3.13,1.2,1,.63,1.75,1.38,2.23,2.26,.49,.88,.73,1.86,.73,2.94,0,.98-.18,1.9-.55,2.74-.36,.85-.95,1.6-1.76,2.25-.81,.65-1.76,1.12-2.86,1.42-1.1,.29-2.3,.44-3.59,.44h-7.34c-.31,0-.57-.05-.8-.15-.23-.1-.34-.26-.34-.48,0-.15,.05-.27,.16-.37,.03-.02,.16-.1,.39-.22l.28-.11c.17-.07,.28-.17,.33-.28,.06-.11,.08-.25,.08-.42v-4.17Zm4.15-4.41v2.75h2.1c.72,0,1.24,.05,1.59,.14,.34,.09,.51,.32,.51,.67,0,.38-.2,.63-.59,.74-.27,.07-.82,.11-1.64,.11h-1.96v3.1c0,.73,.07,1.18,.21,1.37,.21,.27,.72,.4,1.53,.4,1.82,0,3.25-.53,4.29-1.58,.94-.97,1.41-2.21,1.41-3.72s-.48-2.85-1.44-3.87c-1.06-1.13-2.53-1.69-4.4-1.69-.75,0-1.2,.1-1.36,.3-.16,.2-.24,.63-.24,1.28"/>
  <path class="cls-2" d="M646.01,307.22h-1.73c-.46,0-.77-.06-.93-.16-.17-.11-.25-.27-.25-.46,0-.09,.03-.17,.09-.24,.06-.07,.2-.18,.41-.31,.11-.05,.23-.11,.36-.18,.14-.07,.24-.21,.32-.4l.82-2.07c.26-.68,.58-1.39,.96-2.16,.3-.63,.66-1.31,1.07-2.05,.41-.74,.81-1.46,1.21-2.18,.53-.98,1.09-1.92,1.69-2.8,.2-.27,.4-.44,.62-.52s.55-.11,1.03-.11c.62,0,1.06,.07,1.3,.2,.24,.14,.49,.44,.75,.9l4.65,8.85,.82,1.92c.08,.13,.14,.24,.2,.3,.06,.07,.23,.17,.49,.3,.27,.13,.4,.31,.4,.53,0,.23-.11,.4-.33,.49-.22,.09-.49,.14-.81,.14h-3.88c-.4,0-.68-.02-.87-.07-.33-.09-.5-.26-.5-.51,0-.21,.16-.39,.48-.53,.32-.15,.48-.29,.48-.43,0-.12-.13-.52-.38-1.19-.25-.67-.43-1.12-.54-1.36l-.09-.29h-6.39s-.18,.47-.5,1.25c-.24,.6-.36,1.01-.36,1.22,0,.25,.27,.52,.8,.81,.26,.14,.39,.31,.39,.52,0,.22-.13,.37-.39,.46-.26,.09-.55,.13-.89,.13h-.5Zm2.1-5.9h5.11l-.14-.29-2.42-4.61-2.56,4.91Z"/>
  <path class="cls-2" d="M651.35,290.92l-2.92,1.46c-.21,.12-.36,.19-.43,.22-.17,.07-.32,.11-.48,.11-.27,0-.41-.12-.41-.37,0-.11,.05-.22,.14-.32,.09-.1,.21-.22,.36-.34l2.33-1.95c.24-.22,.45-.38,.62-.5,.29-.18,.55-.27,.8-.27,.17,0,.35,.05,.55,.16,.2,.1,.49,.31,.87,.61l2.33,1.91c.14,.11,.26,.23,.38,.35,.11,.12,.17,.24,.17,.35,0,.1-.05,.18-.14,.26-.09,.07-.2,.11-.32,.11s-.27-.04-.44-.11c-.21-.11-.36-.18-.43-.22l-2.97-1.46Zm7.21-3.25l-2.92,1.73c-.15,.09-.32,.17-.49,.27-.18,.09-.33,.14-.47,.14-.34,0-.5-.12-.5-.37,0-.09,.04-.18,.12-.29,.08-.1,.14-.21,.2-.3l1.19-1.69c.2-.26,.34-.43,.41-.5,.18-.18,.5-.28,.96-.28h1.46c.23,0,.41,.04,.56,.11,.14,.07,.22,.21,.22,.41,0,.13-.05,.25-.14,.35-.01,.03-.21,.17-.59,.43"/>
  <path class="cls-2" d="M666.54,304.87v-9.02c0-.26-.05-.44-.14-.53-.14-.13-.4-.2-.78-.2-.99,0-1.8,.25-2.42,.76-.62,.5-1.05,.75-1.28,.75-.58,0-.87-.23-.87-.7,0-.09,.02-.18,.05-.29,.03-.1,.06-.21,.09-.31,.05-.31,.11-.6,.19-.89,.08-.29,.2-.48,.34-.56,.14-.09,.38-.13,.7-.13h12.36c.17,0,.31,0,.43,.02,.12,.02,.21,.05,.25,.08,.15,.09,.28,.33,.39,.72,.11,.39,.18,.68,.23,.86,.05,.18,.07,.34,.07,.49,0,.47-.28,.7-.86,.7-.21,0-.63-.25-1.24-.75-.62-.51-1.43-.76-2.42-.76-.41,0-.67,.06-.78,.18-.11,.12-.17,.35-.17,.67v9.24c0,.15,.03,.29,.1,.42,.07,.13,.18,.22,.34,.28l.27,.11c.17,.1,.29,.17,.35,.22,.12,.1,.18,.22,.18,.37,0,.22-.11,.38-.33,.48-.22,.1-.49,.15-.81,.15h-4.33c-.29,0-.54-.05-.76-.15-.22-.1-.33-.26-.33-.48,0-.16,.04-.28,.14-.37,.05-.04,.18-.11,.41-.22l.23-.11c.17-.07,.28-.17,.33-.28,.05-.11,.08-.25,.08-.42v-.33Z"/>
  <path class="cls-2" d="M695.27,301.63l3.51-6.95c.17-.31,.3-.52,.39-.61,.2-.22,.57-.32,1.12-.32h4.25c.52,0,.78,.22,.78,.66,0,.22-.14,.39-.41,.52-.1,.05-.28,.1-.52,.16-.25,.06-.41,.15-.49,.29s-.12,.35-.12,.62v9.21c0,.15,.03,.29,.1,.41s.18,.22,.34,.28l.26,.11c.18,.1,.29,.17,.35,.22,.12,.1,.17,.22,.17,.37,0,.22-.11,.38-.33,.48-.22,.1-.49,.15-.81,.15h-4.34c-.29,0-.54-.05-.76-.15-.22-.1-.33-.26-.33-.48,0-.16,.05-.28,.14-.37,.05-.04,.18-.11,.41-.22l.23-.11c.17-.07,.28-.17,.33-.28,.05-.11,.08-.25,.08-.42v-8.34l-3.69,7.42c-.24,.45-.37,.69-.39,.72-.23,.31-.65,.46-1.25,.46-.55,0-.92-.04-1.12-.12-.2-.08-.4-.3-.62-.65l-4.01-7.58v7.81l.14,.63c.06,.11,.14,.2,.24,.27,.1,.07,.33,.15,.69,.26,.36,.1,.54,.3,.54,.58,0,.22-.13,.37-.39,.46-.26,.09-.56,.13-.89,.13h-2.6c-.44,0-.76-.05-.95-.16-.19-.1-.29-.25-.29-.43,0-.28,.2-.48,.59-.59,.12-.04,.25-.07,.39-.11,.21-.09,.37-.22,.48-.4l.14-.63v-8.84c0-.15-.03-.27-.09-.37-.09-.33-.38-.57-.87-.7-.17-.04-.32-.07-.48-.11-.26-.1-.39-.27-.39-.51,0-.28,.11-.46,.32-.53,.21-.07,.53-.1,.96-.1h4.47c.49,0,.84,.12,1.05,.36,.08,.07,.24,.38,.5,.92l3.19,6.6Z"/>
  <path class="cls-2" d="M719.59,294.94c.23-.07,.42-.14,.57-.2,.15-.06,.33-.14,.52-.24,.06-.04,.14-.1,.23-.18,.05-.04,.15-.15,.32-.33-.82-.12-1.23-.54-1.23-1.26v-.04c0-.37,.17-.68,.49-.94,.33-.26,.72-.39,1.17-.39,.36,0,.67,.08,.92,.24,.26,.16,.44,.39,.56,.68l.09,.52-.09,.51c-.18,.45-.48,.84-.89,1.16-.41,.32-.9,.57-1.48,.76-.03,.03-.13,.06-.28,.12-.16,.06-.26,.09-.31,.1,.71,.61,1.27,1.35,1.68,2.2,.4,.85,.61,1.78,.61,2.77,0,2.03-.79,3.71-2.36,5.06-1.57,1.35-3.48,2.02-5.71,2.02-1.03,0-2.04-.17-3.02-.53-.98-.35-1.84-.85-2.59-1.49-.74-.64-1.31-1.4-1.7-2.27-.39-.87-.58-1.8-.58-2.78,0-2.01,.77-3.68,2.29-5.01,1.53-1.33,3.41-1.99,5.65-1.99,2.01,0,3.73,.5,5.15,1.51m-5.15,11.12c1.46,0,2.55-.63,3.26-1.9,.56-.99,.84-2.22,.84-3.67s-.27-2.72-.82-3.72c-.71-1.3-1.81-1.95-3.29-1.95-.7,0-1.34,.2-1.92,.59-.51,.34-.96,.84-1.32,1.47-.29,.52-.49,1.05-.6,1.6-.12,.55-.17,1.17-.17,1.86,0,1.44,.27,2.67,.82,3.7,.71,1.34,1.78,2.01,3.19,2.01"/>
  <path class="cls-2" d="M716.63,290.44l-2.92,1.73c-.15,.09-.32,.17-.49,.27-.17,.09-.33,.14-.47,.14-.33,0-.5-.12-.5-.37,0-.09,.04-.18,.11-.29,.08-.1,.14-.21,.21-.3l1.19-1.69c.2-.26,.33-.43,.41-.5,.18-.18,.5-.28,.96-.28h1.46c.23,0,.41,.04,.56,.11,.14,.07,.22,.21,.22,.41,0,.13-.05,.25-.14,.35-.02,.02-.21,.17-.59,.42"/>
  <path class="cls-2" d="M725.75,304.87v-9.1c0-.17-.03-.32-.08-.44-.05-.12-.16-.21-.33-.26l-.23-.11c-.18-.09-.32-.17-.41-.25-.09-.08-.14-.19-.14-.34,0-.23,.11-.4,.32-.49,.21-.09,.47-.14,.78-.14h4.33c.32,0,.59,.04,.81,.14,.22,.09,.33,.25,.33,.49,0,.15-.05,.27-.15,.37-.03,.02-.15,.1-.37,.22l-.26,.11c-.16,.05-.28,.14-.34,.27-.07,.13-.1,.28-.1,.43v9.43c0,.15,.03,.29,.1,.41,.06,.13,.18,.22,.34,.29l.26,.11c.17,.1,.29,.17,.35,.22,.12,.1,.18,.22,.18,.37,0,.22-.11,.38-.33,.48-.22,.1-.49,.15-.81,.15h-4.33c-.29,0-.54-.05-.76-.15-.22-.1-.33-.26-.33-.48,0-.16,.05-.28,.14-.37,.05-.04,.18-.11,.41-.22l.23-.11c.17-.07,.28-.17,.33-.28,.05-.11,.08-.25,.08-.42v-.33Z"/>
  <path class="cls-2" d="M778.99,219.51c-6.57,0-11.92-5.34-11.92-11.92s5.34-11.91,11.92-11.91,11.91,5.34,11.91,11.91-5.34,11.92-11.91,11.92m0-21.93c-5.52,0-10.02,4.49-10.02,10.01s4.49,10.02,10.02,10.02,10.01-4.49,10.01-10.02-4.49-10.01-10.01-10.01"/>
  <path class="cls-2" d="M774.77,200.22h1.89v13.5h-1.89v-13.5Zm.82,5.99h4.6c.36,0,.68-.09,.96-.26,.28-.17,.49-.42,.65-.74,.15-.32,.23-.69,.23-1.1s-.08-.78-.23-1.1c-.15-.32-.36-.56-.64-.74-.27-.17-.59-.26-.96-.26h-4.6v-1.8h4.53c.78,0,1.46,.16,2.05,.48,.59,.32,1.05,.78,1.37,1.37,.33,.59,.49,1.27,.49,2.05s-.16,1.46-.49,2.05c-.33,.59-.79,1.05-1.38,1.37-.59,.32-1.27,.48-2.05,.48h-4.53v-1.8Zm3.67,1.38l1.88-.43,3.45,6.55h-2.25l-3.09-6.12Z"/>
</svg>