<svg width="1920" height="676" viewBox="0 0 1920 676" fill="none" xmlns="http://www.w3.org/2000/svg">
<g clip-path="url(#clip0_187_11313)">
<path d="M1186.98 463.818H1187.88V445.463H1192.2V391.034H1187.88V372.682H1186.98V391.034H1182.67V445.463H1186.98V463.818Z" fill="#808285"/>
<path d="M1164.24 506.959H1165.15V476.154H1169.46V434.175H1165.15V415.823H1164.24V434.175H1159.93V476.154H1164.24V506.959Z" fill="#808285"/>
<path d="M1141.49 464.97H1142.4V446.614H1146.71V401.507H1142.4V373.83H1141.49V401.507H1137.18V446.614H1141.49V464.97Z" fill="#808285"/>
<path d="M1118.75 497.327H1119.65V478.972H1123.97V424.543H1119.65V406.184H1118.75V424.543H1114.44V478.972H1118.75V497.327Z" fill="#808285"/>
<path d="M1096.01 513.713H1096.91V495.367H1101.23V451.786H1096.91V422.583H1096.01V451.786H1091.7V495.367H1096.01V513.713Z" fill="#808285"/>
<path d="M1073.26 494.409H1074.17V476.057H1078.48V421.625H1074.17V403.27H1073.26V421.625H1068.95V476.057H1073.26V494.409Z" fill="#808285"/>
<path d="M1914.78 172.421H1915.68V146.503H1920V105.369H1915.68V89.0531H1914.78V105.369H1910.47V146.503H1914.78V172.421Z" fill="#808285"/>
<path d="M1892.04 148.703H1892.94V118.409H1897.26V87.4005H1892.94V45.7351H1892.04V87.4005H1887.72V118.409H1892.04V148.703Z" fill="#808285"/>
<path d="M1869.29 120.452H1870.2V104.801H1874.51V63.7433H1870.2V32.0135H1869.29V63.7433H1864.98V104.801H1869.29V120.452Z" fill="#808285"/>
<path d="M1846.55 96.5382H1847.45V66.3575H1851.77V25.9006H1847.45V0H1846.55V25.9006H1842.23V66.3575H1846.55V96.5382Z" fill="#808285"/>
<path d="M1823.82 125.009H1824.71V106.654H1829.02V59.7771H1824.71V33.8765H1823.82V59.7771H1819.49V106.654H1823.82V125.009Z" fill="#808285"/>
<path d="M1801.07 173.659H1801.97V149.231H1806.28V114.456H1801.97V79.478H1801.07V114.456H1796.75V149.231H1801.07V173.659Z" fill="#808285"/>
<path d="M1778.32 189.724H1779.22V163.814H1783.54V116.94H1779.22V98.5814H1778.32V116.94H1774.01V163.814H1778.32V189.724Z" fill="#808285"/>
<path d="M1755.58 232.869H1756.48V198.114H1760.8V160.078H1756.48V141.726H1755.58V160.078H1751.26V198.114H1755.58V232.869Z" fill="#808285"/>
<path d="M1732.84 260.349H1733.73V241.582H1738.05V187.861H1733.73V157.387H1732.84V187.861H1728.51V241.582H1732.84V260.349Z" fill="#808285"/>
<path d="M1710.09 243.652H1710.99V225.297H1715.31V170.868H1710.99V152.513H1710.09V170.868H1705.77V225.297H1710.09V243.652Z" fill="#808285"/>
<path d="M1687.35 211.295H1688.25V182.924H1692.56V138.511H1688.25V120.155H1687.35V138.511H1683.03V182.924H1687.35V211.295Z" fill="#808285"/>
<path d="M1664.61 200.508H1665.5V165.787H1669.82V127.727H1665.5V109.368H1664.61V127.727H1660.28V165.787H1664.61V200.508Z" fill="#808285"/>
<path d="M1641.86 142.016H1642.75V124.382H1647.08V82.7399H1642.75V65.9502H1641.86V82.7399H1637.54V124.382H1641.86V142.016Z" fill="#808285"/>
<path d="M1619.12 175.078H1620.02V160.565H1624.33V116.156H1620.02V97.8002H1619.12V116.156H1614.8V160.565H1619.12V175.078Z" fill="#808285"/>
<path d="M1596.37 257.698H1597.28V239.342H1601.59V201.523H1597.28V166.558H1596.37V201.523H1592.06V239.342H1596.37V257.698Z" fill="#808285"/>
<path d="M1573.63 238.661H1574.53V220.306H1578.84V173.092H1574.53V154.74H1573.63V173.092H1569.31V220.306H1573.63V238.661Z" fill="#808285"/>
<path d="M1550.88 294.188H1551.79V275.833H1556.1V221.401H1551.79V203.049H1550.88V221.401H1546.57V275.833H1550.88V294.188Z" fill="#808285"/>
<path d="M1528.13 321.828H1529.04V303.48H1533.35V256.66H1529.04V230.695H1528.13V256.66H1523.83V303.48H1528.13V321.828Z" fill="#808285"/>
<path d="M1505.4 270.889H1506.3V238.297H1510.61V198.098H1506.3V179.745H1505.4V198.098H1501.08V238.297H1505.4V270.889Z" fill="#808285"/>
<path d="M1482.65 243.409H1483.56V225.053H1487.87V182.012H1483.56V152.272H1482.65V182.012H1478.34V225.053H1482.65V243.409Z" fill="#808285"/>
<path d="M1459.91 284.777H1460.81V266.431H1465.12V211.989H1460.81V193.644H1459.91V211.989H1455.6V266.431H1459.91V284.777Z" fill="#808285"/>
<path d="M1437.17 315.719H1438.07V286.309H1442.38V237.857H1438.07V224.583H1437.17V237.857H1432.85V286.309H1437.17V315.719Z" fill="#808285"/>
<path d="M1414.42 343.055H1415.32V324.696H1419.63V270.267H1415.32V251.912H1414.42V270.267H1410.11V324.696H1414.42V343.055Z" fill="#808285"/>
<path d="M1391.68 370.361H1392.58V352.016H1396.89V297.577H1392.58V279.232H1391.68V297.577H1387.37V352.016H1391.68V370.361Z" fill="#808285"/>
<path d="M1368.94 309.749H1369.84V296.802H1374.15V242.37H1369.84V218.613H1368.94V242.37H1364.62V296.802H1368.94V309.749Z" fill="#808285"/>
<path d="M1346.19 243.569H1347.09V225.217H1351.4V180.941H1347.09V152.436H1346.19V180.941H1341.88V225.217H1346.19V243.569Z" fill="#808285"/>
<path d="M1323.45 239.432H1324.35V228.592H1328.66V166.642H1324.35V148.289H1323.45V166.642H1319.13V228.592H1323.45V239.432Z" fill="#808285"/>
<path d="M1300.71 299.907H1301.61V281.552H1305.92V242.447H1301.61V208.771H1300.71V242.447H1296.39V281.552H1300.71V299.907Z" fill="#808285"/>
<path d="M1277.96 338.321H1278.86V319.975H1283.17V265.543H1278.86V247.185H1277.96V265.543H1273.65V319.975H1277.96V338.321Z" fill="#808285"/>
<path d="M1255.22 373.56H1256.11V355.211H1260.43V300.775H1256.11V282.427H1255.22V300.775H1250.9V355.211H1255.22V373.56Z" fill="#808285"/>
<path d="M1232.47 415.128H1233.38V396.779H1237.69V342.344H1233.38V323.989H1232.47V342.344H1228.16V396.779H1232.47V415.128Z" fill="#808285"/>
<path d="M1205.42 473.37H1209.73V491.722H1210.63V473.37H1214.94V418.934H1210.63V400.579H1209.73V418.934H1205.42V473.37Z" fill="#808285"/>
<path d="M140.778 489.942H141.679V437.23H145.996V417.171H141.679V398.813H140.778V417.171H136.464V437.23H140.778V489.942Z" fill="#808285"/>
<path d="M118.032 511.516H118.93V477.693H123.25V438.732H118.93V420.386H118.032V438.732H113.718V477.693H118.032V511.516Z" fill="#808285"/>
<path d="M95.2896 533.09H96.191V503.123H100.508V455.234H96.191V441.96H95.2896V455.234H90.9728V503.123H95.2896V533.09Z" fill="#808285"/>
<path d="M72.5472 543.874H73.4486V525.521H77.7654V487.615H73.4486V452.744H72.5472V487.615H68.2304V525.521H72.5472V543.874Z" fill="#808285"/>
<path d="M49.8015 522.306H50.6996V503.948H55.0197V449.522H50.6996V431.17H49.8015V449.522H45.4881V503.948H49.8015V522.306Z" fill="#808285"/>
<path d="M27.0625 472.512H27.9606V441.703H32.2773V399.727H27.9606V381.372H27.0625V399.727H22.7424V441.703H27.0625V472.512Z" fill="#808285"/>
<path d="M4.31677 515.656H5.21151V497.3H9.53163V452.193H5.21151V424.516H4.31677V452.193H0V497.3H4.31677V515.656Z" fill="#808285"/>
<path d="M983.193 324.826H982.295V343.182H977.975V397.611H982.295V415.956H983.193V397.611H987.51V343.182H983.193V324.826Z" fill="#808285"/>
<path d="M1005.94 366.382H1005.04V397.19H1000.72V439.173H1005.04V457.521H1005.94V439.173H1010.26V397.19H1005.94V366.382Z" fill="#808285"/>
<path d="M1028.68 378.995H1027.78V397.347H1023.47V442.454H1027.78V470.138H1028.68V442.454H1032.99V397.347H1028.68V378.995Z" fill="#808285"/>
<path d="M1051.42 346.641H1050.52V364.989H1046.21V419.425H1050.52V437.777H1051.42V419.425H1055.74V364.989H1051.42V346.641Z" fill="#808285"/>
<path d="M345.469 607.66H346.377V589.315H350.687V544.935H346.377V516.531H345.469V544.935H341.159V589.315H345.469V607.66Z" fill="#808285"/>
<path d="M322.73 640.021H323.628V621.666H327.948V567.237H323.628V548.888H322.73V567.237H318.413V621.666H322.73V640.021Z" fill="#808285"/>
<path d="M299.987 629.238H300.886V610.882H305.206V576.782H300.886V538.101H299.987V576.782H295.671V610.882H299.987V629.238Z" fill="#808285"/>
<path d="M277.245 600.756H278.146V569.317H282.457V527.975H278.146V509.62H277.245V527.975H272.932V569.317H277.245V600.756Z" fill="#808285"/>
<path d="M254.499 517.472H255.397V491.551H259.711V450.42H255.397V434.105H254.499V450.42H250.186V491.551H254.499V517.472Z" fill="#808285"/>
<path d="M231.757 548.835H232.658V518.547H236.969V487.538H232.658V445.873H231.757V487.538H227.44V518.547H231.757V548.835Z" fill="#808285"/>
<path d="M209.011 565.644H209.916V549.99H214.226V508.942H209.916V477.206H209.011V508.942H204.698V549.99H209.011V565.644Z" fill="#808285"/>
<path d="M186.269 560.089H187.167V529.912H191.487V489.455H187.167V463.554H186.269V489.455H181.949V529.912H186.269V560.089Z" fill="#808285"/>
<path d="M163.527 514.114H164.428V495.758H168.738V448.881H164.428V422.98H163.527V448.881H159.21V495.758H163.527V514.114Z" fill="#808285"/>
<path d="M369.113 475.57H368.211V499.995H363.901V534.773H368.211V569.748H369.113V534.773H373.429V499.995H369.113V475.57Z" fill="#808285"/>
<path d="M391.858 544.207H390.96V570.115H386.643V616.992H390.96V635.344H391.858V616.992H396.172V570.115H391.858V544.207Z" fill="#808285"/>
<path d="M414.601 524.099H413.703V558.85H409.382V596.883H413.703V615.239H414.601V596.883H418.921V558.85H414.601V524.099Z" fill="#808285"/>
<path d="M437.343 477.353H436.448V496.119H432.128V549.84H436.448V580.311H437.343V549.84H441.663V496.119H437.343V477.353Z" fill="#808285"/>
<path d="M460.089 446.871H459.187V465.23H454.874V519.656H459.187V538.014H460.089V519.656H464.406V465.23H460.089V446.871Z" fill="#808285"/>
<path d="M482.831 479.229H481.933V507.6H477.613V552.016H481.933V570.368H482.831V552.016H487.151V507.6H482.831V479.229Z" fill="#808285"/>
<path d="M505.573 550.057H504.679V584.781H500.359V622.844H504.679V641.2H505.573V622.844H509.897V584.781H505.573V550.057Z" fill="#808285"/>
<path d="M528.323 598.97H527.421V616.604H523.104V658.25H527.421V675.033H528.323V658.25H532.636V616.604H528.323V598.97Z" fill="#808285"/>
<path d="M551.062 565.898H550.163V580.414H545.843V624.824H550.163V643.176H551.062V624.824H555.382V580.414H551.062V565.898Z" fill="#808285"/>
<path d="M573.811 536.362H572.906V554.717H568.592V592.54H572.906V627.502H573.811V592.54H578.124V554.717H573.811V536.362Z" fill="#808285"/>
<path d="M596.553 555.402H595.652V573.757H591.335V620.968H595.652V639.323H596.553V620.968H600.87V573.757H596.553V555.402Z" fill="#808285"/>
<path d="M619.295 491.004H618.391V509.359H614.08V563.788H618.391V582.144H619.295V563.788H623.609V509.359H619.295V491.004Z" fill="#808285"/>
<path d="M642.041 458.453H641.136V476.798H636.823V523.625H641.136V549.583H642.041V523.625H646.354V476.798H642.041V458.453Z" fill="#808285"/>
<path d="M664.783 469.23H663.885V501.814H659.565V542.014H663.885V560.373H664.783V542.014H669.1V501.814H664.783V469.23Z" fill="#808285"/>
<path d="M687.522 512.227H686.621V530.583H682.311V573.627H686.621V603.37H687.522V573.627H691.836V530.583H687.522V512.227Z" fill="#808285"/>
<path d="M710.268 470.859H709.363V489.211H705.057V543.65H709.363V561.995H710.268V543.65H714.582V489.211H710.268V470.859Z" fill="#808285"/>
<path d="M733.014 439.683H732.116V469.093H727.796V517.546H732.116V530.823H733.014V517.546H737.331V469.093H733.014V439.683Z" fill="#808285"/>
<path d="M755.753 395.467H754.851V413.819H750.545V468.252H754.851V486.61H755.753V468.252H760.07V413.819H755.753V395.467Z" fill="#808285"/>
<path d="M778.502 367.76H777.597V386.109H773.284V440.545H777.597V458.897H778.502V440.545H782.815V386.109H778.502V367.76Z" fill="#808285"/>
<path d="M801.244 331.253H800.339V344.197H796.033V398.632H800.339V422.383H801.244V398.632H805.558V344.197H801.244V331.253Z" fill="#808285"/>
<path d="M823.99 363.607H823.085V381.959H818.772V426.236H823.085V454.744H823.99V426.236H828.303V381.959H823.99V363.607Z" fill="#808285"/>
<path d="M846.729 314.667H845.831V325.504H841.514V387.451H845.831V405.804H846.729V387.451H851.049V325.504H846.729V314.667Z" fill="#808285"/>
<path d="M869.471 362.028H868.573V380.377H864.26V419.482H868.573V453.158H869.471V419.482H873.791V380.377H869.471V362.028Z" fill="#808285"/>
<path d="M892.22 268.855H891.319V287.201H887.009V341.636H891.319V359.992H892.22V341.636H896.53V287.201H892.22V268.855Z" fill="#808285"/>
<path d="M914.959 233.617H914.061V251.966H909.744V306.408H914.061V324.753H914.959V306.408H919.279V251.966H914.959V233.617Z" fill="#808285"/>
<path d="M937.702 276.721H936.804V295.076H932.49V349.505H936.804V367.864H937.702V349.505H942.022V295.076H937.702V276.721Z" fill="#808285"/>
<path d="M964.761 315.281H960.451V296.923H959.549V315.281H955.236V369.707H959.549V388.066H960.451V369.707H964.761V315.281Z" fill="#808285"/>
</g>
<defs>
<clipPath id="clip0_187_11313">
<rect width="1920" height="675.033" fill="white"/>
</clipPath>
</defs>
</svg>
