<svg width="48" height="48" viewBox="0 0 48 48" fill="none" xmlns="http://www.w3.org/2000/svg">
<path d="M36.3648 12.6188H4.31999L4.78079 9.64758C4.85859 9.14479 5.13286 8.69348 5.5433 8.39285C5.95374 8.09222 6.46677 7.96688 6.96959 8.04438L36.3648 12.6188ZM36 25.8188C35.3381 25.8188 34.8 26.3573 34.8 27.0188C34.8 27.6802 35.3381 28.2188 36 28.2188C36.6619 28.2188 37.2 27.6802 37.2 27.0188C37.2 26.3573 36.6619 25.8188 36 25.8188ZM45.6 15.9788V38.0588C45.6 38.568 45.3977 39.0563 45.0376 39.4164C44.6776 39.7765 44.1892 39.9788 43.68 39.9788H4.31999C3.81078 39.9788 3.32242 39.7765 2.96235 39.4164C2.60228 39.0563 2.39999 38.568 2.39999 38.0588V15.9788C2.39999 15.4696 2.60228 14.9812 2.96235 14.6211C3.32242 14.2611 3.81078 14.0588 4.31999 14.0588H43.68C44.1892 14.0588 44.6776 14.2611 45.0376 14.6211C45.3977 14.9812 45.6 15.4696 45.6 15.9788ZM42.48 20.7788C42.48 20.5878 42.4041 20.4047 42.2691 20.2697C42.1341 20.1346 41.9509 20.0588 41.76 20.0588C41.1873 20.0581 40.6383 19.8304 40.2333 19.4254C39.8284 19.0205 39.6006 18.4714 39.6 17.8988C39.6 17.7078 39.5241 17.5247 39.3891 17.3897C39.2541 17.2546 39.0709 17.1788 38.88 17.1788H9.11999C8.92904 17.1788 8.7459 17.2546 8.61088 17.3897C8.47585 17.5247 8.39999 17.7078 8.39999 17.8988C8.39999 19.0897 7.43087 20.0588 6.23999 20.0588C6.04904 20.0588 5.8659 20.1346 5.73088 20.2697C5.59585 20.4047 5.51999 20.5878 5.51999 20.7788V33.2588C5.51999 33.4497 5.59585 33.6329 5.73088 33.7679C5.8659 33.9029 6.04904 33.9788 6.23999 33.9788C7.43087 33.9788 8.39999 34.9479 8.39999 36.1388C8.39999 36.3297 8.47585 36.5129 8.61088 36.6479C8.7459 36.7829 8.92904 36.8588 9.11999 36.8588H38.88C39.0709 36.8588 39.2541 36.7829 39.3891 36.6479C39.5241 36.5129 39.6 36.3297 39.6 36.1388C39.6 34.9479 40.5691 33.9788 41.76 33.9788C41.9509 33.9788 42.1341 33.9029 42.2691 33.7679C42.4041 33.6329 42.48 33.4497 42.48 33.2588V20.7788ZM12 25.8188C11.3386 25.8188 10.8 26.3573 10.8 27.0188C10.8 27.6802 11.3386 28.2188 12 28.2188C12.6614 28.2188 13.2 27.6802 13.2 27.0188C13.2 26.3573 12.6614 25.8188 12 25.8188ZM30 27.0188C30 30.3274 27.3086 33.0188 24 33.0188C20.6914 33.0188 18 30.3274 18 27.0188C18 23.7101 20.6914 21.0188 24 21.0188C27.3086 21.0188 30 23.7101 30 27.0188ZM23.0352 25.6153V25.3383C23.0352 25.0383 23.279 24.7945 23.579 24.7945H24.4214C24.721 24.7945 24.9653 25.0383 24.9653 25.3383C24.9653 25.5292 25.0411 25.7124 25.1762 25.8474C25.3112 25.9824 25.4943 26.0583 25.6853 26.0583C25.8762 26.0583 26.0594 25.9824 26.1944 25.8474C26.3294 25.7124 26.4053 25.5292 26.4053 25.3383C26.4053 24.3466 25.6714 23.5301 24.7205 23.3847V22.873C24.7205 22.6821 24.6446 22.4989 24.5096 22.3639C24.3746 22.2289 24.1914 22.153 24.0005 22.153C23.8095 22.153 23.6264 22.2289 23.4914 22.3639C23.3563 22.4989 23.2805 22.6821 23.2805 22.873V23.3847C22.3282 23.5301 21.5947 24.3466 21.5947 25.3383V25.6153C21.5947 26.5273 22.213 27.3183 23.0976 27.5396L24.553 27.9034C24.7958 27.9644 24.9653 28.1809 24.9653 28.4314V28.7079C24.9653 29.0079 24.7214 29.2522 24.4214 29.2522H23.579C23.5076 29.2522 23.4368 29.2381 23.3707 29.2108C23.3047 29.1834 23.2447 29.1433 23.1941 29.0928C23.1436 29.0422 23.1035 28.9822 23.0761 28.9162C23.0488 28.8502 23.0347 28.7794 23.0347 28.7079C23.0347 28.5169 22.9589 28.3338 22.8238 28.1988C22.6888 28.0638 22.5057 27.9879 22.3147 27.9879C22.1238 27.9879 21.9406 28.0638 21.8056 28.1988C21.6706 28.3338 21.5947 28.5169 21.5947 28.7079C21.5947 29.7001 22.3286 30.5165 23.28 30.6615V31.2361C23.28 31.427 23.3558 31.6101 23.4909 31.7452C23.6259 31.8802 23.809 31.9561 24 31.9561C24.1909 31.9561 24.3741 31.8802 24.5091 31.7452C24.6441 31.6101 24.72 31.427 24.72 31.2361V30.662C25.6714 30.5165 26.4048 29.7001 26.4048 28.7084V28.4309C26.4048 27.5189 25.7875 26.7279 24.9024 26.5066L23.447 26.1428C23.3291 26.1136 23.2245 26.0457 23.1497 25.95C23.075 25.8542 23.0345 25.7362 23.0347 25.6148L23.0352 25.6153ZM41.04 21.4263V32.6113C40.3487 32.7537 39.7144 33.0956 39.2153 33.5946C38.7163 34.0937 38.3744 34.728 38.232 35.4193H9.76799C9.62562 34.728 9.28377 34.0936 8.78471 33.5945C8.28565 33.0955 7.65126 32.7536 6.95999 32.6113V21.4263C7.6512 21.284 8.28554 20.9422 8.78459 20.4432C9.28365 19.9442 9.62554 19.31 9.76799 18.6188H38.232C38.3744 19.31 38.7163 19.9444 39.2153 20.4434C39.7144 20.9425 40.3487 21.2839 41.04 21.4263ZM14.64 27.0188C14.64 25.5629 13.4558 24.3788 12 24.3788C10.5442 24.3788 9.35999 25.5629 9.35999 27.0188C9.35999 28.4746 10.5442 29.6588 12 29.6588C13.4558 29.6588 14.64 28.4746 14.64 27.0188ZM31.44 27.0188C31.44 22.9162 28.1026 19.5788 24 19.5788C19.8974 19.5788 16.56 22.9162 16.56 27.0188C16.56 31.1213 19.8974 34.4588 24 34.4588C28.1026 34.4588 31.44 31.1213 31.44 27.0188ZM38.64 27.0188C38.64 25.5629 37.4554 24.3788 36 24.3788C34.5446 24.3788 33.36 25.5629 33.36 27.0188C33.36 28.4746 34.5446 29.6588 36 29.6588C37.4554 29.6588 38.64 28.4746 38.64 27.0188Z" fill="black"/>
</svg>
