<svg width="120" height="120" viewBox="0 0 120 120" fill="none" xmlns="http://www.w3.org/2000/svg">
<circle cx="60" cy="60" r="60" fill="url(#paint0_linear_189_11420)"/>
<path d="M82.07 79.1996H63.51C61.6967 73.333 60.79 67.253 60.79 60.9596C60.79 54.5596 62.4433 49.493 65.75 45.7596C69.1633 41.9196 74.1767 39.9996 80.79 39.9996V48.9596C75.4567 48.9596 72.79 52.213 72.79 58.7196V61.7596H82.07V79.1996ZM55.03 79.1996H36.47C34.6567 73.333 33.75 67.253 33.75 60.9596C33.75 54.5596 35.4033 49.493 38.71 45.7596C42.1233 41.9196 47.1367 39.9996 53.75 39.9996V48.9596C48.4167 48.9596 45.75 52.213 45.75 58.7196V61.7596H55.03V79.1996Z" fill="white"/>
<defs>
<linearGradient id="paint0_linear_189_11420" x1="60" y1="0" x2="60" y2="120" gradientUnits="userSpaceOnUse">
<stop stop-color="#0082DF"/>
<stop offset="1" stop-color="#005EA0"/>
</linearGradient>
</defs>
</svg>
