<svg width="48" height="48" viewBox="0 0 48 48" fill="none" xmlns="http://www.w3.org/2000/svg">
<path d="M3.75607 31.8032L1.01857 14.0102C0.816075 12.6962 2.31307 11.7993 3.37657 12.5973L11.9056 18.9933C12.1273 19.1593 12.3805 19.2785 12.6498 19.3434C12.919 19.4084 13.1987 19.4178 13.4718 19.371C13.7448 19.3243 14.0054 19.2224 14.2378 19.0716C14.4701 18.9207 14.6693 18.7241 14.8231 18.4937L21.9241 7.84375C22.6741 6.71875 24.3271 6.71875 25.0771 7.84375L32.1781 18.4937C32.3319 18.7241 32.5311 18.9207 32.7634 19.0716C32.9957 19.2224 33.2564 19.3243 33.5294 19.371C33.8024 19.4178 34.0821 19.4084 34.3514 19.3434C34.6207 19.2785 34.8739 19.1593 35.0956 18.9933L43.6246 12.5973C44.6896 11.7993 46.1851 12.6962 45.9826 14.0102L43.2451 31.8032H3.75607ZM41.1856 41.6763H5.81557C5.54512 41.6763 5.27731 41.623 5.02744 41.5195C4.77757 41.416 4.55053 41.2643 4.35929 41.073C3.97306 40.6868 3.75607 40.163 3.75607 39.6168V35.0942H43.2451V39.6168C43.2451 40.7538 42.3226 41.6763 41.1856 41.6763Z" fill="black"/>
</svg>
