<svg width="48" height="48" viewBox="0 0 48 48" fill="none" xmlns="http://www.w3.org/2000/svg">
<path d="M46.5926 28.6875C47.2734 28.6875 47.9978 28.1734 47.9993 27.2205L48 24.4688L47.9993 21.717C47.9978 20.7641 47.2734 20.25 46.5926 20.25C45.8243 20.25 45.1933 19.6245 45.1864 18.8562C45.1843 18.6704 45.2192 18.4861 45.2892 18.314C45.3592 18.1419 45.4628 17.9854 45.594 17.8538C45.7244 17.7215 45.8799 17.6166 46.0514 17.5451C46.2229 17.4736 46.4069 17.437 46.5926 17.4375C47.2734 17.4375 47.9978 16.9234 47.9993 15.9705L48 13.2188L47.9993 10.467C47.9978 9.51413 47.2734 9 46.5926 9H37.875C38.6517 9 39.2812 9.62953 39.2812 10.4062V13.2188C39.2812 13.9955 38.6517 14.625 37.875 14.625C37.0983 14.625 36.4688 13.9955 36.4688 13.2188V10.4062C36.4688 9.62953 37.0983 9 37.875 9H1.40738C0.726562 9 0.00215625 9.51413 0.00075 10.467L0 13.2188L0.00075 15.9705C0.00215625 16.9234 0.726562 17.4375 1.40738 17.4375C1.78491 17.4375 2.13975 17.5854 2.406 17.8538C2.53711 17.9855 2.64066 18.1419 2.71059 18.314C2.78052 18.4861 2.81542 18.6705 2.81325 18.8562C2.80669 19.6245 2.17566 20.25 1.40738 20.25C0.726562 20.25 0.00215625 20.7641 0.00075 21.717L0 24.4688L0.00075 27.2205C0.00215625 28.1734 0.726562 28.6875 1.40738 28.6875C2.17566 28.6875 2.80669 29.313 2.81325 30.0813C2.81542 30.267 2.78052 30.4514 2.71059 30.6235C2.64066 30.7956 2.53711 30.952 2.406 31.0837C2.27558 31.216 2.12009 31.3209 1.94862 31.3924C1.77715 31.4639 1.59315 31.5005 1.40738 31.5C0.726562 31.5 0.00215625 32.0141 0.00075 32.967L0 35.7188L0.00075 38.4705C0.00215625 39.4234 0.726562 39.9375 1.40738 39.9375H37.875C37.0983 39.9375 36.4688 39.308 36.4688 38.5312V35.7188C36.4688 34.942 37.0983 34.3125 37.875 34.3125C38.6517 34.3125 39.2812 34.942 39.2812 35.7188V38.5312C39.2812 39.308 38.6517 39.9375 37.875 39.9375H46.5926C47.2734 39.9375 47.9978 39.4234 47.9993 38.4705L48 35.7188L47.9993 32.967C47.9978 32.0141 47.2734 31.5 46.5926 31.5C46.4069 31.5005 46.2229 31.4639 46.0514 31.3924C45.8799 31.3209 45.7244 31.216 45.594 31.0837C45.4628 30.9521 45.3592 30.7956 45.2892 30.6235C45.2192 30.4514 45.1843 30.2671 45.1864 30.0813C45.1933 29.313 45.8243 28.6875 46.5926 28.6875ZM30.4629 24.5149L27.7719 27.138L28.4074 30.8422C28.5893 31.905 28.1605 32.9593 27.2882 33.5929C26.8082 33.9432 26.229 34.1314 25.6348 34.1301C25.1789 34.1296 24.73 34.0188 24.3263 33.8071L21 32.0581L17.6738 33.8071C17.2694 34.0207 16.8192 34.1326 16.3619 34.1331C15.7815 34.1331 15.2047 33.9514 14.7118 33.5933C13.8391 32.9593 13.4106 31.9054 13.5926 30.8422L14.2281 27.1385L11.5368 24.5149C10.7644 23.7623 10.4919 22.6575 10.8252 21.6321C11.158 20.6067 12.0282 19.8728 13.0954 19.7179L16.8145 19.1774L18.4779 15.8075C18.9551 14.8403 19.9215 14.2398 21 14.2398C22.0781 14.2398 23.0446 14.8403 23.5217 15.8071L25.1851 19.1774L28.9043 19.7179C29.9718 19.8731 30.8416 20.6066 31.1749 21.6321C31.5082 22.6575 31.2356 23.7623 30.4629 24.5149ZM39.2812 30.0938C39.2812 30.8705 38.6517 31.5 37.875 31.5C37.0983 31.5 36.4688 30.8705 36.4688 30.0938V27.2812C36.4688 26.5045 37.0983 25.875 37.875 25.875C38.6517 25.875 39.2812 26.5045 39.2812 27.2812V30.0938ZM39.2812 21.6562C39.2812 22.433 38.6517 23.0625 37.875 23.0625C37.0983 23.0625 36.4688 22.433 36.4688 21.6562V18.8438C36.4688 18.067 37.0983 17.4375 37.875 17.4375C38.6517 17.4375 39.2812 18.067 39.2812 18.8438V21.6562Z" fill="black"/>
<path d="M21 17.0519L18.6822 21.7478L13.5 22.5011L17.25 26.1562L16.3649 31.3176L21 28.8808L25.6351 31.3176H25.6355L24.75 26.1562L28.5 22.5011L23.3178 21.7478L21 17.0519Z" fill="black"/>
</svg>
