<svg width="48" height="48" viewBox="0 0 48 48" fill="none" xmlns="http://www.w3.org/2000/svg">
<path d="M17.25 6.75C17.25 7.74456 16.8549 8.69839 16.1517 9.40165C15.4484 10.1049 14.4946 10.5 13.5 10.5C12.5054 10.5 11.5516 10.1049 10.8483 9.40165C10.1451 8.69839 9.75 7.74456 9.75 6.75C9.75 5.75544 10.1451 4.80161 10.8483 4.09835C11.5516 3.39509 12.5054 3 13.5 3C14.4946 3 15.4484 3.39509 16.1517 4.09835C16.8549 4.80161 17.25 5.75544 17.25 6.75ZM39 27.75V45H3V41.25C3 41.0511 3.07902 40.8603 3.21967 40.7197C3.36032 40.579 3.55109 40.5 3.75 40.5H12V36.75C12 36.5511 12.079 36.3603 12.2197 36.2197C12.3603 36.079 12.5511 36 12.75 36H21V32.25C21 32.0511 21.079 31.8603 21.2197 31.7197C21.3603 31.579 21.5511 31.5 21.75 31.5H30V27.75C30 27.5511 30.079 27.3603 30.2197 27.2197C30.3603 27.079 30.5511 27 30.75 27H38.25C38.4489 27 38.6397 27.079 38.7803 27.2197C38.921 27.3603 39 27.5511 39 27.75ZM44.25 3.375H40.5V2.25C40.5 2.05109 40.421 1.86032 40.2803 1.71967C40.1397 1.57902 39.9489 1.5 39.75 1.5H29.25C29.0511 1.5 28.8603 1.57902 28.7197 1.71967C28.579 1.86032 28.5 2.05109 28.5 2.25V3.375H24.75C24.4516 3.375 24.1655 3.49353 23.9545 3.7045C23.7435 3.91548 23.625 4.20163 23.625 4.5C23.625 9.2235 25.6125 11.8185 29.484 12.279C30.3033 13.5235 31.5568 14.4182 33 14.7885V19.5C32.2044 19.5 31.4413 19.8161 30.8787 20.3787C30.3161 20.9413 30 21.7044 30 22.5V24H39V22.5C39 21.7044 38.6839 20.9413 38.1213 20.3787C37.5587 19.8161 36.7956 19.5 36 19.5V14.7885C37.4435 14.4187 38.6972 13.5239 39.516 12.279C43.3875 11.8185 45.375 9.2235 45.375 4.5C45.375 4.20163 45.2565 3.91548 45.0455 3.7045C44.8345 3.49353 44.5484 3.375 44.25 3.375ZM25.9215 5.625H28.5V9C28.5 9.2805 28.545 9.5475 28.5825 9.8175C27.249 9.366 26.1555 8.2755 25.9215 5.625ZM38.19 6.9975L36.5625 8.583L36.9465 10.8225C36.956 10.8777 36.9498 10.9344 36.9288 10.9862C36.9077 11.0381 36.8726 11.083 36.8273 11.1159C36.7821 11.1488 36.7285 11.1684 36.6727 11.1725C36.6169 11.1766 36.5611 11.165 36.5115 11.139L34.5 10.083L32.4885 11.1405C32.4389 11.1665 32.3831 11.1781 32.3273 11.174C32.2715 11.1699 32.2179 11.1503 32.1727 11.1174C32.1274 11.0845 32.0923 11.0396 32.0712 10.9877C32.0502 10.9359 32.044 10.8792 32.0535 10.824L32.4375 8.5845L30.81 6.9975C30.77 6.9584 30.7417 6.90889 30.7283 6.85456C30.7149 6.80022 30.717 6.74323 30.7344 6.69003C30.7517 6.63682 30.7835 6.58952 30.8263 6.55346C30.8691 6.51741 30.9211 6.49404 30.9765 6.486L33.225 6.159L34.2315 4.1205C34.2562 4.07018 34.2946 4.0278 34.3421 3.99816C34.3897 3.96852 34.4447 3.9528 34.5007 3.9528C34.5568 3.9528 34.6118 3.96852 34.6594 3.99816C34.7069 4.0278 34.7453 4.07018 34.77 4.1205L35.7765 6.159L38.025 6.486C38.0803 6.49427 38.1321 6.51781 38.1747 6.55395C38.2173 6.5901 38.2489 6.63742 38.2661 6.69059C38.2832 6.74376 38.2852 6.80066 38.2718 6.85488C38.2583 6.90911 38.23 6.9585 38.19 6.9975ZM40.4175 9.8175C40.455 9.5475 40.5 9.2805 40.5 9V5.625H43.0785C42.843 8.2755 41.751 9.366 40.4175 9.8175Z" fill="black"/>
<path d="M22.488 12.0015C22.5395 12.3957 22.4324 12.7942 22.1903 13.1095C21.9481 13.4248 21.5907 13.6311 21.1965 13.683L15.909 14.3775L14.3925 23.478L17.1885 24.9165C17.4331 25.0429 17.6382 25.2341 17.7814 25.4694C17.9245 25.7046 18.0002 25.9746 18 26.25V33C18 33.3978 17.842 33.7793 17.5607 34.0606C17.2794 34.3419 16.8978 34.5 16.5 34.5C16.1022 34.5 15.7206 34.3419 15.4393 34.0606C15.158 33.7793 15 33.3978 15 33V27.165L9.4755 24.321C8.92173 24.0356 8.47053 23.5849 8.18453 23.0315C7.89853 22.478 7.79192 21.8493 7.8795 21.2325L8.736 15.3795C8.23952 15.5105 7.78549 15.768 7.41822 16.1269C7.05095 16.4857 6.783 16.9337 6.6405 17.427L5.9445 19.9035C5.82378 20.2708 5.56604 20.5773 5.22496 20.7593C4.88388 20.9413 4.48574 20.9847 4.11344 20.8805C3.74114 20.7764 3.42337 20.5326 3.22631 20.2C3.02924 19.8674 2.96806 19.4716 3.0555 19.095L3.7515 16.6185C4.06843 15.4873 4.71089 14.4743 5.59899 13.7054C6.4871 12.9366 7.58165 12.4457 8.7465 12.294L20.805 10.71C21.0004 10.6839 21.199 10.6966 21.3894 10.7474C21.5799 10.7982 21.7584 10.8862 21.9148 11.0062C22.0711 11.1262 22.2023 11.2759 22.3006 11.4467C22.399 11.6175 22.4627 11.806 22.488 12.0015Z" fill="black"/>
<path d="M12.7995 28.5675L10.437 36.4335C10.3222 36.8146 10.0608 37.1345 9.71011 37.3228C9.35947 37.5112 8.94837 37.5525 8.56725 37.4377C8.18614 37.3229 7.86622 37.0615 7.67789 36.7108C7.48956 36.3602 7.44823 35.9491 7.563 35.568L10.086 27.168L12.7995 28.5675Z" fill="black"/>
</svg>
