<svg width="48" height="48" viewBox="0 0 48 48" fill="none" xmlns="http://www.w3.org/2000/svg">
<path d="M24.002 4C35.269 4 44.002 12.253 44.002 23.4C44.002 34.547 35.269 42.8 24.002 42.8C22.0466 42.8046 20.0994 42.546 18.213 42.031C17.8581 41.9336 17.4806 41.9616 17.144 42.11L13.175 43.862C12.688 44.0772 12.1258 44.036 11.6754 43.7522C11.2249 43.4684 10.9451 42.9792 10.929 42.447L10.82 38.889C10.8051 38.4514 10.6109 38.0392 10.283 37.749C6.39196 34.269 4.00196 29.231 4.00196 23.4C4.00196 12.253 12.735 4 24.002 4ZM11.992 29.073C11.428 29.968 12.528 30.976 13.37 30.337L19.681 25.547C20.1086 25.2244 20.6982 25.2244 21.126 25.547L25.799 29.047C26.4692 29.5498 27.3192 29.7494 28.1432 29.5974C28.9672 29.4454 29.6902 28.9558 30.137 28.247L36.012 18.927C36.576 18.032 35.476 17.024 34.634 17.663L28.323 22.453C27.8952 22.7756 27.3056 22.7756 26.878 22.453L22.205 18.953C21.5346 18.4502 20.6846 18.2506 19.8607 18.4026C19.0367 18.5546 18.3138 19.0442 17.867 19.753L11.992 29.073Z" fill="black"/>
</svg>
