<svg width="48" height="48" viewBox="0 0 48 48" fill="none" xmlns="http://www.w3.org/2000/svg">
<g clip-path="url(#clip0_187_11263)">
<path d="M35.2499 16.9692C28.271 16.9692 22.5938 22.6464 22.5938 29.6253C22.5938 36.6042 28.2709 42.2814 35.2498 42.2814C42.2288 42.2814 47.9996 36.6042 47.9996 29.6253C47.9996 22.6464 42.2288 16.9692 35.2499 16.9692ZM36.6931 36.4024C36.6809 36.4069 36.6682 36.4048 36.656 36.4091V38.0627C36.656 38.84 36.027 39.469 35.2497 39.469C34.4724 39.469 33.8435 38.84 33.8435 38.0627V36.3995C32.9173 36.0866 32.0299 35.4927 31.2713 34.5883C30.7714 33.9937 30.8483 33.1065 31.4443 32.6081C32.039 32.1082 32.9288 32.1851 33.4246 32.7811C34.1689 33.6669 35.0108 34.0184 35.7304 33.7602C36.2838 33.5584 36.656 33.0269 36.656 32.4378C36.656 31.6619 36.0256 31.0316 35.2497 31.0316C32.9234 31.0316 31.0311 29.1391 31.0311 26.8129C31.03 25.9836 31.2738 25.1724 31.7319 24.481C32.1899 23.7897 32.8419 23.2489 33.606 22.9266C33.6834 22.8938 33.7655 22.8956 33.8436 22.8677V21.188C33.8436 20.4107 34.4725 19.7817 35.2498 19.7817C36.0271 19.7817 36.6561 20.4107 36.6561 21.188V22.8702C37.3842 23.1162 38.0943 23.5073 38.7283 24.1213C39.2858 24.6611 39.2996 25.5509 38.7585 26.1099C38.2188 26.6674 37.3275 26.6798 36.77 26.1401C36.0861 25.4768 35.3294 25.2488 34.7032 25.5166C34.4482 25.6241 34.2306 25.8044 34.0776 26.035C33.9247 26.2656 33.8432 26.5363 33.8435 26.813C33.8435 27.5889 34.4739 28.2192 35.2497 28.2192C37.576 28.2192 39.4684 30.1117 39.4684 32.4379C39.4686 34.2052 38.3534 35.7982 36.6931 36.4024ZM1.40663 31.0316C0.629346 31.0316 0.000377655 31.6605 0.000377655 32.4378V46.5939C0.000377655 47.3711 0.629346 48.0001 1.40663 48.0001H5.62528V31.0316H1.40663Z" fill="black"/>
<path d="M33.352 8.7773L23.5084 0.339891C22.9838 -0.113297 22.2038 -0.113297 21.6791 0.339891L11.8356 8.7773C11.6171 8.96384 11.4612 9.21299 11.389 9.49103C11.3168 9.76907 11.3317 10.0626 11.4318 10.3319C11.5311 10.6015 11.7108 10.8342 11.9466 10.9985C12.1823 11.1628 12.4628 11.2508 12.7502 11.2506H16.9688V48.0001H26.8125C27.5898 48.0001 28.2188 47.3712 28.2188 46.5939V43.3863C23.2179 40.8205 19.7813 35.622 19.7813 29.6254C19.7813 23.6289 23.218 18.4304 28.2188 15.8645V11.2507H32.4374C32.7248 11.2509 33.0053 11.1629 33.241 10.9986C33.4768 10.8343 33.6565 10.6016 33.7558 10.332C33.8559 10.0627 33.8709 9.76913 33.7987 9.49106C33.7264 9.21299 33.5705 8.96383 33.352 8.7773Z" fill="black"/>
<path d="M9.93769 19.7817C9.16041 19.7817 8.53144 20.4107 8.53144 21.188V48H14.1563V19.7817H9.93769Z" fill="black"/>
</g>
<defs>
<clipPath id="clip0_187_11263">
<rect width="48" height="48" fill="white"/>
</clipPath>
</defs>
</svg>
