<svg width="48" height="48" viewBox="0 0 48 48" fill="none" xmlns="http://www.w3.org/2000/svg">
<path d="M24.6968 1.1416C24.5063 1.14585 24.3197 1.19579 24.1525 1.28723C21.527 2.72333 19.9201 5.02399 18.0432 6.41261C15.7089 6.38143 13.0602 5.45238 10.0903 5.81982C9.87748 5.84612 9.67578 5.92946 9.5065 6.06101C9.33721 6.19255 9.20664 6.36742 9.1286 6.5671C8.04081 9.35497 8.28707 12.1503 7.74175 14.4205C5.93361 15.8966 3.30909 16.888 1.26992 19.0781C1.12381 19.235 1.02283 19.4285 0.977669 19.6381C0.932509 19.8477 0.944849 20.0655 1.01338 20.2687C1.97185 23.104 3.95857 25.0869 4.99959 27.176C4.56377 29.4696 3.18897 31.9162 3.03554 34.905C3.02445 35.1192 3.07148 35.3323 3.17165 35.522C3.27183 35.7116 3.42143 35.8706 3.6046 35.9821C6.16144 37.5384 8.95746 37.78 11.0987 38.7112C12.2382 40.7482 12.7576 43.506 14.5605 45.8942C14.6897 46.0653 14.8629 46.1983 15.0615 46.2791C15.2602 46.3599 15.477 46.3854 15.689 46.353C18.6477 45.9016 20.9448 44.2898 23.1831 43.6268C25.3658 44.4545 27.5371 46.2336 30.4536 46.9044C30.6626 46.9523 30.8806 46.9428 31.0846 46.8769C31.2887 46.8111 31.4711 46.6913 31.6126 46.5302C33.5887 44.283 34.3126 41.5713 35.6016 39.6247C37.7974 38.8582 40.6197 38.8221 43.2782 37.4615C43.4689 37.3638 43.6297 37.2165 43.7435 37.035C43.8573 36.8535 43.92 36.6446 43.9249 36.4304C43.994 33.4391 42.8052 30.8968 42.5412 28.5774C43.7353 26.5715 45.8637 24.7417 47.0306 21.9858C47.2006 21.5836 47.1369 21.1205 46.864 20.7796C44.9942 18.4432 42.4498 17.2594 40.7564 15.6525C40.3819 13.3483 40.8369 10.5785 39.9592 7.71726C39.8963 7.51229 39.7791 7.32814 39.6202 7.1843C39.4612 7.04047 39.2662 6.94229 39.056 6.90017C36.1222 6.31234 33.4115 7.04119 31.0818 6.89875C29.3137 5.37443 27.8815 2.96109 25.37 1.33365C25.1699 1.20378 24.9353 1.13711 24.6968 1.14231V1.1416ZM19.3549 14.3886C21.6134 14.3886 23.4701 16.2449 23.4701 18.5038C23.4701 20.7623 21.6134 22.6186 19.3549 22.6186C17.0961 22.6186 15.239 20.7623 15.239 18.5038C15.239 16.2449 17.0957 14.3886 19.3549 14.3886ZM31.8132 15.1274C32.1266 15.1295 32.4265 15.2553 32.6476 15.4774C32.7578 15.5881 32.8452 15.7193 32.9047 15.8637C32.9641 16.0081 32.9946 16.1628 32.9942 16.319C32.9939 16.4752 32.9628 16.6297 32.9027 16.7739C32.8426 16.918 32.7547 17.0489 32.6441 17.1591L17.0992 32.6362C16.8758 32.8585 16.5731 32.9829 16.2579 32.9822C15.9427 32.9814 15.6407 32.8554 15.4183 32.632C15.1959 32.4086 15.0714 32.106 15.072 31.7908C15.0727 31.4755 15.1985 31.1735 15.4219 30.951L30.9663 15.4739C31.0776 15.3631 31.2097 15.2754 31.3551 15.2159C31.5004 15.1564 31.6561 15.1263 31.8132 15.1274ZM19.3549 16.7661C18.3809 16.7661 17.6173 17.5297 17.6173 18.5038C17.6173 19.4775 18.3809 20.2414 19.3549 20.2414C20.3286 20.2414 21.0925 19.4775 21.0925 18.5038C21.0925 17.5297 20.3286 16.7661 19.3549 16.7661ZM29.4317 25.1113C31.6906 25.1113 33.5469 26.968 33.5469 29.2265C33.5469 31.4853 31.6902 33.3424 29.4317 33.3424C27.1728 33.3424 25.3158 31.4857 25.3158 29.2265C25.3158 26.968 27.1728 25.1113 29.4317 25.1113ZM29.4317 27.4896C28.458 27.4896 27.6937 28.2528 27.6937 29.2265C27.6937 30.2002 28.458 30.9641 29.4317 30.9641C30.4054 30.9641 31.1693 30.2005 31.1693 29.2265C31.1693 28.2524 30.4054 27.4896 29.4317 27.4896Z" fill="black"/>
</svg>
