<svg width="48" height="48" viewBox="0 0 48 48" fill="none" xmlns="http://www.w3.org/2000/svg">
<g clip-path="url(#clip0_187_11280)">
<path d="M47.9915 16H0V18C0 19.0609 0.421427 20.0783 1.17157 20.8284C1.92172 21.5786 2.93913 22 4 22H10C11.0609 22 12.0783 21.5786 12.8284 20.8284C13.5786 20.0783 14 19.0609 14 18C14 19.0609 14.4214 20.0783 15.1716 20.8284C15.9217 21.5786 16.9391 22 18 22H30C31.0609 22 32.0783 21.5786 32.8284 20.8284C33.5786 20.0783 34 19.0609 34 18C34 19.0609 34.4214 20.0783 35.1716 20.8284C35.9217 21.5786 36.9391 22 38 22H44C45.0609 22 46.0783 21.5786 46.8284 20.8284C47.5786 20.0783 48 19.0609 48 18V16H47.9915ZM47.5085 14L43.923 1.45C43.8035 1.03221 43.5512 0.664713 43.2042 0.403094C42.8573 0.141476 42.4345 -2.42327e-05 42 3.11275e-09H32.8395L35.6395 14H47.5085ZM15.1605 3.11275e-09H6C5.56546 -2.42327e-05 5.14273 0.141476 4.79577 0.403094C4.44881 0.664713 4.1965 1.03221 4.077 1.45L0.4915 14H12.3605L15.1605 3.11275e-09ZM28.7605 3.11275e-09H19.2395L16.4395 14H31.5605L28.7605 3.11275e-09ZM38 24C36.5232 24.0012 35.0983 23.4557 34 22.4685C32.9017 23.4557 31.4768 24.0012 30 24H18C16.5232 24.0012 15.0983 23.4557 14 22.4685C12.9017 23.4557 11.4768 24.0012 10 24H4C3.31822 23.9986 2.64175 23.8802 2 23.65V46C2 46.5304 2.21071 47.0391 2.58579 47.4142C2.96086 47.7893 3.46957 48 4 48H8V30C8 29.4696 8.21071 28.9609 8.58579 28.5858C8.96086 28.2107 9.46957 28 10 28H20C20.5304 28 21.0391 28.2107 21.4142 28.5858C21.7893 28.9609 22 29.4696 22 30V48H44C44.5304 48 45.0391 47.7893 45.4142 47.4142C45.7893 47.0391 46 46.5304 46 46V23.65C45.3583 23.8802 44.6818 23.9986 44 24H38ZM40 36C40 36.5304 39.7893 37.0391 39.4142 37.4142C39.0391 37.7893 38.5304 38 38 38H28C27.4696 38 26.9609 37.7893 26.5858 37.4142C26.2107 37.0391 26 36.5304 26 36V30C26 29.4696 26.2107 28.9609 26.5858 28.5858C26.9609 28.2107 27.4696 28 28 28H38C38.5304 28 39.0391 28.2107 39.4142 28.5858C39.7893 28.9609 40 29.4696 40 30V36Z" fill="black"/>
</g>
<defs>
<clipPath id="clip0_187_11280">
<rect width="48" height="48" fill="white"/>
</clipPath>
</defs>
</svg>
