<svg width="48" height="48" viewBox="0 0 48 48" fill="none" xmlns="http://www.w3.org/2000/svg">
<path d="M24.4878 8C25.556 8.00588 28.2286 8.03172 31.0682 8.14546L32.075 8.18936C34.934 8.32472 37.7906 8.55596 39.2074 8.951C41.0972 9.4819 42.5826 11.031 43.0846 12.9946C43.884 16.1128 43.984 22.1988 43.9964 23.6716L43.9982 23.9768V23.9982C43.9982 23.9982 43.9982 24.0056 43.9982 24.0198L43.9964 24.325C43.984 25.7978 43.884 31.8838 43.0846 35.002C42.5756 36.9728 41.0902 38.522 39.2074 39.0456C37.7906 39.4406 34.934 39.6718 32.075 39.8072L31.0682 39.851C28.2286 39.9648 25.556 39.9906 24.4878 39.9966L24.019 39.9982H23.9982C23.9982 39.9982 23.9912 39.9982 23.9774 39.9982L23.509 39.9966C21.2482 39.9842 11.7954 39.882 8.78902 39.0456C6.8992 38.5146 5.41384 36.9656 4.91174 35.002C4.1124 31.8838 4.01248 25.7978 4 24.325V23.6716C4.01248 22.1988 4.1124 16.1128 4.91174 12.9946C5.4208 11.0237 6.90616 9.47464 8.78902 8.951C11.7954 8.11446 21.2482 8.01244 23.509 8H24.4878ZM19.9982 16.9983V30.9982L31.9982 23.9982L19.9982 16.9983Z" fill="black"/>
</svg>
